<svg
   width="100mm"
   height="75.097mm"
   viewBox="0 0 100 75.097"
   version="1.1"
   id="svg5"
   xml:space="preserve"
   inkscape:version="1.2.1 (9c6d41e410, 2022-07-14)"
   sodipodi:docname="Logo bez napisow.svg"
   xmlns:inkscape="http://www.inkscape.org/namespaces/inkscape"
   xmlns:sodipodi="http://sodipodi.sourceforge.net/DTD/sodipodi-0.dtd"
   xmlns:xlink="http://www.w3.org/1999/xlink"
   xmlns="http://www.w3.org/2000/svg"
   xmlns:svg="http://www.w3.org/2000/svg"><sodipodi:namedview
     id="namedview7"
     pagecolor="#ffffff"
     bordercolor="#000000"
     borderopacity="0.25"
     inkscape:showpageshadow="2"
     inkscape:pageopacity="0.0"
     inkscape:pagecheckerboard="0"
     inkscape:deskcolor="#d1d1d1"
     inkscape:document-units="mm"
     showgrid="false"
     inkscape:zoom="0.5"
     inkscape:cx="555"
     inkscape:cy="270"
     inkscape:window-width="1920"
     inkscape:window-height="1009"
     inkscape:window-x="1912"
     inkscape:window-y="-8"
     inkscape:window-maximized="1"
     inkscape:current-layer="layer1" /><defs
     id="defs2"><linearGradient
       inkscape:collect="always"
       id="linearGradient2340">
       <stop
         style="stop-color:#203886;stop-opacity:1;"
         offset="0.19962338"
         id="stop2336" /><stop
         style="stop-color:#203886;stop-opacity:0;"
         offset="0.56603771"
         id="stop2338" /></linearGradient><linearGradient
       inkscape:collect="always"
       id="linearGradient1408"><stop
         style="stop-color:#203886;stop-opacity:1;"
         offset="0.45419973"
         id="stop1404" /><stop
         style="stop-color:#203886;stop-opacity:0;"
         offset="0.7794494"
         id="stop1406" /></linearGradient><linearGradient
       inkscape:collect="always"
       xlink:href="#linearGradient1408"
       id="linearGradient2248"
       gradientUnits="userSpaceOnUse"
       x1="74.787766"
       y1="220.43964"
       x2="66.650337"
       y2="240.73877"
       gradientTransform="translate(0.01860351,0.03513997)" /><linearGradient
       inkscape:collect="always"
       xlink:href="#linearGradient2340"
       id="linearGradient2332"
       gradientUnits="userSpaceOnUse"
       gradientTransform="translate(24.288384,0.03203613)"
       x1="74.787766"
       y1="220.43964"
       x2="66.650337"
       y2="240.73877" /></defs><g
     inkscape:label="Warstwa 1"
     inkscape:groupmode="layer"
     id="layer1"><g
       id="g1322"
       transform="matrix(1.0387686,0,0,1.0000058,-41.589791,-193.38685)"
       style="stroke-width:0.981159"><path
         style="display:none;fill:#2a4592;fill-opacity:1;stroke-width:0.981159"
         d="m 40.03761,230.93342 v -37.54638 h 48.133907 48.133903 v 37.54638 37.54638 H 105.65098 74.996528 l 0.01358,-0.0759 c 0.0075,-0.0418 0.02914,-0.0946 0.04817,-0.11733 0.01902,-0.0228 0.05515,-0.11596 0.08028,-0.20706 0.02513,-0.0911 0.05661,-0.19049 0.06996,-0.22086 0.05227,-0.11893 0.081,-0.23806 0.06652,-0.2758 -0.0084,-0.0218 0.0027,-0.0754 0.02458,-0.1193 0.02187,-0.0438 0.06275,-0.16544 0.09085,-0.27022 0.02809,-0.10479 0.06587,-0.20294 0.08394,-0.21813 0.01807,-0.0152 0.04102,-0.0742 0.05099,-0.13113 0.01,-0.0569 0.02791,-0.10353 0.03987,-0.10353 0.01195,0 0.04494,-0.0932 0.0733,-0.20706 0.02836,-0.11388 0.0615,-0.20706 0.07364,-0.20706 0.01214,0 0.02208,-0.0241 0.02208,-0.0536 0,-0.0295 0.01242,-0.0613 0.02761,-0.0707 0.01519,-0.009 0.02761,-0.0357 0.02761,-0.0584 0,-0.0227 0.02344,-0.0934 0.05209,-0.15712 0.02865,-0.0637 0.06088,-0.15702 0.07162,-0.2074 0.01074,-0.0504 0.03692,-0.12491 0.05817,-0.16564 0.02125,-0.0407 0.03872,-0.091 0.03881,-0.11172 0,-0.0207 0.02363,-0.0828 0.0523,-0.13803 0.02867,-0.0552 0.06818,-0.1563 0.08779,-0.22462 0.01962,-0.0683 0.04464,-0.13666 0.0556,-0.15185 0.01096,-0.0152 0.03479,-0.0835 0.05295,-0.15184 0.01816,-0.0683 0.06197,-0.18635 0.09737,-0.26227 0.03539,-0.0759 0.07283,-0.18463 0.08319,-0.24157 0.01036,-0.0569 0.0279,-0.10353 0.03898,-0.10353 0.01108,0 0.03522,-0.0674 0.05365,-0.1497 0.01843,-0.0823 0.05146,-0.16462 0.07341,-0.18284 0.02195,-0.0182 0.03991,-0.0524 0.03991,-0.0761 0,-0.0495 0.06111,-0.23343 0.08437,-0.25395 0.0086,-0.008 0.03835,-0.10077 0.0661,-0.20706 0.02775,-0.10629 0.06736,-0.21286 0.08803,-0.23683 0.02067,-0.024 0.03758,-0.0678 0.03758,-0.0974 0,-0.0296 0.01714,-0.0783 0.03809,-0.10826 0.02095,-0.0299 0.06048,-0.13521 0.08784,-0.2339 0.02737,-0.0987 0.07161,-0.21889 0.09831,-0.26709 0.02671,-0.0482 0.05689,-0.13206 0.06707,-0.18636 0.01019,-0.0543 0.02818,-0.0987 0.03998,-0.0987 0.0118,0 0.03018,-0.0466 0.04084,-0.10353 0.01066,-0.0569 0.041,-0.15322 0.06743,-0.21395 0.02643,-0.0607 0.06456,-0.16323 0.08474,-0.22777 0.02018,-0.0645 0.04574,-0.11733 0.05681,-0.11733 0.01106,0 0.02884,-0.0466 0.0395,-0.10353 0.01066,-0.0569 0.04169,-0.15322 0.06896,-0.21396 0.02727,-0.0607 0.05859,-0.15391 0.06959,-0.20705 0.011,-0.0532 0.0358,-0.11527 0.05512,-0.13804 0.01931,-0.0228 0.05589,-0.11595 0.08128,-0.20706 0.02539,-0.0911 0.06308,-0.20292 0.08375,-0.24847 0.02068,-0.0456 0.0464,-0.1304 0.05717,-0.18855 0.01077,-0.0582 0.03664,-0.11229 0.0575,-0.12029 0.02086,-0.008 0.03793,-0.0375 0.03793,-0.0655 0,-0.028 0.01417,-0.0857 0.03149,-0.12818 0.01732,-0.0425 0.0469,-0.11449 0.06574,-0.16004 0.01884,-0.0455 0.04924,-0.14743 0.06756,-0.2264 0.01833,-0.079 0.05086,-0.15813 0.07231,-0.17593 0.02144,-0.0178 0.03906,-0.0526 0.03915,-0.0773 0,-0.0247 0.01879,-0.0806 0.04153,-0.12425 0.02275,-0.0436 0.0606,-0.15355 0.08411,-0.24428 0.02351,-0.0907 0.05347,-0.18548 0.06657,-0.21056 0.05692,-0.10893 0.111294,-0.25048 0.111294,-0.28972 0,-0.0234 0.01158,-0.0497 0.02573,-0.0584 0.01416,-0.009 0.04098,-0.084 0.05961,-0.16728 0.01863,-0.0832 0.04432,-0.15137 0.05709,-0.15137 0.01277,0 0.02322,-0.0199 0.02322,-0.0441 0,-0.0406 0.05361,-0.18094 0.111295,-0.29134 0.0131,-0.0251 0.04306,-0.11984 0.06657,-0.21057 0.02351,-0.0907 0.06136,-0.20065 0.08411,-0.24428 0.02275,-0.0436 0.04144,-0.097 0.04153,-0.11855 0,-0.0216 0.01776,-0.0589 0.03925,-0.0828 0.02149,-0.024 0.05988,-0.12434 0.08529,-0.22303 0.02542,-0.0987 0.05559,-0.19188 0.06706,-0.20706 0.01147,-0.0152 0.0371,-0.0897 0.05695,-0.16565 0.01985,-0.0759 0.0519,-0.15667 0.07123,-0.17945 0.01932,-0.0228 0.05051,-0.10353 0.06929,-0.17945 0.01878,-0.0759 0.04238,-0.14425 0.05243,-0.15184 0.01005,-0.008 0.03468,-0.0759 0.05472,-0.15184 0.02005,-0.0759 0.05846,-0.17531 0.08536,-0.22086 0.0269,-0.0455 0.05758,-0.12955 0.06817,-0.18666 0.01059,-0.0571 0.02885,-0.10976 0.04058,-0.11701 0.01173,-0.007 0.04372,-0.0972 0.07109,-0.19985 0.02737,-0.10267 0.05802,-0.19288 0.0681,-0.20048 0.01009,-0.008 0.04045,-0.0821 0.06747,-0.16564 0.02702,-0.0835 0.05899,-0.16443 0.07105,-0.17982 0.01205,-0.0154 0.03738,-0.0899 0.05628,-0.16565 0.0189,-0.0757 0.05635,-0.1771 0.08322,-0.22531 0.02687,-0.0482 0.05719,-0.13206 0.06737,-0.18635 0.01019,-0.0543 0.02748,-0.0987 0.03843,-0.0987 0.01095,0 0.04312,-0.0932 0.07148,-0.20706 0.02836,-0.11388 0.0615,-0.20705 0.07364,-0.20705 0.01214,0 0.02208,-0.0241 0.02208,-0.0536 0,-0.0295 0.01242,-0.0613 0.02761,-0.0707 0.01518,-0.009 0.02761,-0.0412 0.02761,-0.0707 0,-0.0295 0.01034,-0.0536 0.02299,-0.0536 0.01264,0 0.04619,-0.0932 0.07455,-0.20706 0.02836,-0.11388 0.0604,-0.20706 0.07121,-0.20706 0.01081,0 0.02792,-0.049 0.03804,-0.10884 0.01011,-0.0599 0.03481,-0.12246 0.05487,-0.13911 0.02006,-0.0166 0.05841,-0.11365 0.08522,-0.21555 0.02681,-0.1019 0.0579,-0.1977 0.06909,-0.21288 0.01119,-0.0152 0.03514,-0.0835 0.05322,-0.15185 0.01808,-0.0683 0.04847,-0.14287 0.06752,-0.16564 0.01906,-0.0228 0.05088,-0.10353 0.07073,-0.17945 0.01985,-0.0759 0.04525,-0.15046 0.05644,-0.16565 0.0112,-0.0152 0.04223,-0.10836 0.06897,-0.20705 0.02673,-0.0987 0.06441,-0.19809 0.08372,-0.22087 0.01931,-0.0228 0.05048,-0.10352 0.06926,-0.17944 0.01878,-0.0759 0.04255,-0.14425 0.05281,-0.15185 0.01026,-0.008 0.0338,-0.0759 0.0523,-0.15184 0.0185,-0.0759 0.05621,-0.18773 0.08381,-0.24847 0.0276,-0.0607 0.09042,-0.22845 0.139601,-0.3727 0.04919,-0.14425 0.104796,-0.29954 0.12358,-0.3451 0.01878,-0.0455 0.04969,-0.1263 0.06869,-0.17945 0.01899,-0.0531 0.04528,-0.12147 0.0584,-0.15184 0.01313,-0.0304 0.05018,-0.13597 0.08235,-0.23466 0.03217,-0.0987 0.07433,-0.21672 0.0937,-0.26227 0.06962,-0.16374 0.093,-0.2269 0.179256,-0.48423 0.08743,-0.26084 0.09712,-0.28658 0.176264,-0.46824 0.02315,-0.0531 0.05119,-0.13307 0.06229,-0.17761 0.01111,-0.0445 0.03684,-0.11287 0.05718,-0.15184 0.02034,-0.039 0.03706,-0.0887 0.03715,-0.11046 0,-0.0218 0.02432,-0.0901 0.05383,-0.15184 0.02951,-0.0617 0.09905,-0.2489 0.15452,-0.41593 0.05547,-0.16702 0.117567,-0.33474 0.137991,-0.3727 0.02042,-0.038 0.08874,-0.22431 0.15182,-0.41411 0.06308,-0.18981 0.125915,-0.3569 0.139642,-0.37133 0.01372,-0.0144 0.02503,-0.0455 0.02513,-0.069 0,-0.0235 0.01878,-0.0785 0.04153,-0.1221 0.02275,-0.0436 0.06106,-0.15544 0.08512,-0.24847 0.02407,-0.093 0.0525,-0.18158 0.0632,-0.19676 0.01069,-0.0152 0.04248,-0.0959 0.07064,-0.17945 0.02816,-0.0835 0.06007,-0.16427 0.07091,-0.17945 0.01084,-0.0152 0.0286,-0.0649 0.03945,-0.11043 0.01086,-0.0456 0.03549,-0.1201 0.05473,-0.16565 0.09857,-0.23328 0.209854,-0.53916 0.238737,-0.65615 0.01787,-0.0724 0.04338,-0.13834 0.0567,-0.14657 0.01331,-0.008 0.02421,-0.0358 0.02421,-0.0613 0,-0.0255 0.02902,-0.10858 0.06448,-0.18472 0.03546,-0.0761 0.104807,-0.26267 0.154098,-0.41451 0.04929,-0.15184 0.11345,-0.32125 0.142579,-0.37647 0.02913,-0.0552 0.05296,-0.12388 0.05296,-0.15259 0,-0.0287 0.01673,-0.0767 0.03717,-0.10668 0.02045,-0.0299 0.06024,-0.14142 0.08843,-0.24771 0.02819,-0.10629 0.06688,-0.20918 0.08598,-0.22865 0.0191,-0.0195 0.04281,-0.0785 0.05268,-0.13113 0.0099,-0.0527 0.02692,-0.0957 0.03787,-0.0957 0.01095,0 0.04312,-0.0932 0.07148,-0.20706 0.02836,-0.11388 0.0615,-0.20706 0.07364,-0.20706 0.01214,0 0.02208,-0.0241 0.02208,-0.0536 0,-0.0295 0.01242,-0.0613 0.02761,-0.0707 0.01519,-0.009 0.02761,-0.0446 0.02761,-0.0783 0,-0.0337 0.01658,-0.0858 0.03684,-0.1157 0.02026,-0.03 0.05374,-0.11658 0.0744,-0.1925 0.02066,-0.0759 0.0537,-0.1691 0.07343,-0.20706 0.01972,-0.038 0.03594,-0.0785 0.03603,-0.09 0,-0.0116 0.02431,-0.0737 0.05382,-0.13804 0.02951,-0.0644 0.07449,-0.19157 0.09996,-0.28268 0.02547,-0.0911 0.05612,-0.17807 0.06811,-0.19325 0.01199,-0.0152 0.03043,-0.0737 0.04097,-0.13015 0.01054,-0.0564 0.03506,-0.11574 0.05448,-0.13186 0.01942,-0.0161 0.05779,-0.11595 0.08525,-0.22185 0.02747,-0.10589 0.05858,-0.19253 0.06915,-0.19253 0.01056,0 0.02793,-0.0466 0.03859,-0.10353 0.01066,-0.0569 0.04851,-0.16564 0.0841,-0.24156 0.0356,-0.0759 0.07345,-0.17531 0.08413,-0.22086 0.01067,-0.0456 0.02878,-0.0952 0.04024,-0.11043 0.01146,-0.0152 0.04271,-0.10836 0.06944,-0.20706 0.02674,-0.0987 0.06534,-0.19906 0.08579,-0.22304 0.02045,-0.024 0.03718,-0.0636 0.03718,-0.0881 0,-0.0245 0.01161,-0.0517 0.0258,-0.0605 0.01419,-0.009 0.04594,-0.0871 0.07055,-0.17417 0.02461,-0.087 0.0627,-0.19738 0.08463,-0.24523 0.02193,-0.0478 0.03988,-0.10613 0.03988,-0.12951 0,-0.0234 0.01242,-0.0502 0.02761,-0.0596 0.01518,-0.009 0.028,-0.0443 0.02848,-0.0776 4.69e-4,-0.0333 0.01912,-0.0846 0.04141,-0.11408 0.02229,-0.0295 0.04053,-0.0705 0.04053,-0.0912 0,-0.0207 0.02372,-0.0898 0.05271,-0.15347 0.02899,-0.0637 0.06162,-0.16339 0.07251,-0.22155 0.01089,-0.0581 0.03564,-0.11181 0.05501,-0.11924 0.01937,-0.007 0.04377,-0.0592 0.05423,-0.11513 0.01046,-0.0559 0.04118,-0.15131 0.06826,-0.21205 0.02708,-0.0607 0.06484,-0.16012 0.08392,-0.22086 0.01908,-0.0607 0.04385,-0.12285 0.05504,-0.13804 0.0112,-0.0152 0.04228,-0.0959 0.06907,-0.17945 0.02679,-0.0835 0.05823,-0.16426 0.06986,-0.17945 0.01163,-0.0152 0.04027,-0.0897 0.06366,-0.16564 0.02339,-0.0759 0.08133,-0.23743 0.128757,-0.3589 0.04743,-0.12148 0.105409,-0.28298 0.128845,-0.3589 0.02344,-0.0759 0.05023,-0.15046 0.05955,-0.16565 0.01643,-0.0268 0.08514,-0.21377 0.182603,-0.49693 0.02613,-0.0759 0.05875,-0.16289 0.0725,-0.19326 0.02724,-0.0602 0.223103,-0.5987 0.306263,-0.84203 0.02854,-0.0835 0.06849,-0.18911 0.08878,-0.23467 0.02029,-0.0455 0.07737,-0.20084 0.126838,-0.34509 0.04947,-0.14425 0.105798,-0.29954 0.12517,-0.3451 0.01937,-0.0455 0.0442,-0.11388 0.05517,-0.15184 0.01097,-0.038 0.03654,-0.10629 0.05683,-0.15184 0.02029,-0.0456 0.06053,-0.15115 0.08942,-0.23466 0.02889,-0.0835 0.137008,-0.38168 0.240255,-0.66259 0.103247,-0.28091 0.211146,-0.57907 0.239775,-0.66258 0.02863,-0.0835 0.0636,-0.17669 0.07771,-0.20706 0.01411,-0.0304 0.04916,-0.12354 0.07789,-0.20706 0.0518,-0.15058 0.25434,-0.70411 0.38387,-1.04909 0.03706,-0.0987 0.08496,-0.23535 0.106458,-0.30368 0.02149,-0.0683 0.05158,-0.14908 0.06686,-0.17945 0.01528,-0.0304 0.07525,-0.19266 0.133265,-0.36065 0.05801,-0.168 0.113804,-0.31892 0.123981,-0.33538 0.01018,-0.0165 0.04253,-0.10264 0.07189,-0.1915 0.05339,-0.16157 0.122887,-0.35058 0.262422,-0.71371 0.04084,-0.10629 0.08712,-0.23674 0.102827,-0.28988 0.01571,-0.0532 0.04537,-0.1339 0.0659,-0.17945 0.02053,-0.0456 0.06106,-0.15115 0.09007,-0.23467 0.02901,-0.0835 0.111203,-0.31334 0.182652,-0.51074 0.07145,-0.19739 0.153979,-0.42723 0.1834,-0.51074 0.02942,-0.0835 0.06547,-0.17669 0.0801,-0.20706 0.01463,-0.0304 0.05025,-0.12354 0.07914,-0.20705 0.08985,-0.25971 0.298077,-0.8329 0.376104,-1.03529 0.04098,-0.10629 0.09372,-0.25537 0.117203,-0.33129 0.02349,-0.0759 0.05232,-0.15046 0.06408,-0.16565 0.01176,-0.0152 0.04102,-0.0897 0.06504,-0.16564 0.04238,-0.13399 0.156889,-0.45449 0.192337,-0.53835 0.0096,-0.0228 0.04167,-0.10974 0.07121,-0.19326 0.02954,-0.0835 0.08639,-0.2388 0.126349,-0.34509 0.03995,-0.10629 0.09044,-0.24916 0.1122,-0.31749 0.02176,-0.0683 0.05174,-0.14908 0.06663,-0.17945 0.02357,-0.0481 0.116016,-0.29851 0.44329,-1.20093 0.0413,-0.11388 0.159346,-0.43689 0.26232,-0.7178 0.102974,-0.28091 0.214508,-0.58528 0.247853,-0.67639 0.03334,-0.0911 0.06833,-0.18428 0.07775,-0.20705 0.0094,-0.0228 0.06731,-0.18428 0.128657,-0.3589 0.06135,-0.17462 0.122783,-0.34234 0.136523,-0.3727 0.01374,-0.0304 0.04636,-0.11734 0.0725,-0.19326 0.05922,-0.17207 0.159376,-0.44427 0.201276,-0.54705 0.01743,-0.0427 0.03168,-0.0906 0.03168,-0.10626 0,-0.0157 0.0184,-0.0677 0.04089,-0.11553 0.02249,-0.0478 0.06515,-0.15532 0.09482,-0.23884 0.02966,-0.0835 0.08391,-0.23259 0.120557,-0.33129 0.09004,-0.24252 0.425102,-1.15788 0.505286,-1.38038 0.03557,-0.0987 0.09708,-0.26641 0.136685,-0.3727 0.03961,-0.10629 0.100436,-0.27401 0.135178,-0.37271 0.144344,-0.41007 0.294361,-0.81799 0.319823,-0.86964 0.01497,-0.0304 0.0448,-0.11112 0.0663,-0.17945 0.02149,-0.0683 0.0813,-0.23604 0.132911,-0.3727 0.05161,-0.13666 0.128444,-0.34475 0.170745,-0.46243 l 0.07691,-0.21396 h 5.072637 5.07263 l 0.0348,0.11734 c 0.0192,0.0645 0.0584,0.16945 0.0872,0.23315 0.0288,0.0637 0.0528,0.13203 0.0533,0.15184 5.3e-4,0.0198 0.0249,0.0857 0.0543,0.14645 0.0293,0.0607 0.0538,0.12286 0.0544,0.13804 9.9e-4,0.0259 0.1399,0.40316 0.19314,0.52455 0.0133,0.0304 0.0494,0.12975 0.0801,0.22086 0.0307,0.0911 0.0884,0.25261 0.12812,0.3589 0.0834,0.22324 0.1482,0.40134 0.23098,0.63497 0.0323,0.0911 0.0701,0.19049 0.0841,0.22086 0.014,0.0304 0.0441,0.11112 0.067,0.17945 0.0708,0.21115 0.15865,0.45288 0.18558,0.51074 0.0141,0.0304 0.0434,0.11112 0.0651,0.17945 0.0415,0.13075 0.166,0.47212 0.20648,0.56596 0.0131,0.0304 0.0697,0.18566 0.12579,0.3451 0.0561,0.15943 0.11962,0.32902 0.14119,0.37687 0.0216,0.0479 0.0392,0.10187 0.0392,0.12006 0,0.0182 0.0184,0.0722 0.0409,0.12007 0.0225,0.0478 0.0675,0.16153 0.10007,0.25264 0.10131,0.28351 0.1559,0.43355 0.24609,0.67638 0.0479,0.12907 0.10755,0.29678 0.13248,0.37271 0.0249,0.0759 0.0518,0.14425 0.0597,0.15184 0.008,0.008 0.0564,0.13804 0.10775,0.28988 0.0514,0.15184 0.11017,0.31334 0.13067,0.3589 0.0205,0.0456 0.0552,0.13873 0.0772,0.20705 0.0451,0.14035 0.17058,0.4824 0.20768,0.56596 0.0135,0.0304 0.0712,0.19187 0.1282,0.3589 0.057,0.16703 0.1125,0.31611 0.12328,0.33129 0.0108,0.0152 0.0386,0.0897 0.0618,0.16565 0.0232,0.0759 0.0757,0.225 0.11667,0.33129 0.0793,0.20589 0.25095,0.6756 0.36317,0.99387 0.0375,0.10629 0.086,0.2324 0.10774,0.28025 0.0218,0.0479 0.0396,0.0997 0.0396,0.11525 0,0.0238 0.10913,0.31744 0.19158,0.51556 0.0126,0.0304 0.0689,0.18566 0.12494,0.34509 0.10277,0.29216 0.14723,0.41309 0.2758,0.75012 0.0387,0.10128 0.0707,0.19446 0.0712,0.20705 5.2e-4,0.0126 0.0249,0.0726 0.0543,0.13333 0.0293,0.0607 0.0538,0.1249 0.0543,0.14259 9.6e-4,0.033 0.14357,0.42736 0.20803,0.57521 0.0199,0.0455 0.0488,0.12631 0.0643,0.17945 0.0155,0.0531 0.0674,0.19601 0.1154,0.31749 0.0479,0.12147 0.10487,0.27677 0.12649,0.34509 0.0216,0.0683 0.0472,0.14287 0.0569,0.16565 0.029,0.0684 0.14669,0.39078 0.19651,0.53835 0.0256,0.0759 0.0532,0.14425 0.0612,0.15184 0.008,0.008 0.0411,0.0946 0.0736,0.19325 0.0324,0.0987 0.0921,0.26642 0.1327,0.37271 0.0406,0.10629 0.0928,0.25537 0.11616,0.33129 0.0233,0.0759 0.0519,0.15046 0.0636,0.16564 0.0117,0.0152 0.0367,0.0773 0.0557,0.13804 0.019,0.0607 0.05,0.1477 0.069,0.19326 0.019,0.0455 0.0804,0.21326 0.1365,0.3727 0.0561,0.15943 0.11315,0.31473 0.12685,0.34509 0.0137,0.0304 0.0506,0.12976 0.082,0.22087 0.0314,0.0911 0.0828,0.24018 0.11411,0.33129 0.0314,0.0911 0.0665,0.17807 0.0781,0.19325 0.0116,0.0152 0.0291,0.0612 0.0389,0.10231 0.01,0.0411 0.032,0.10942 0.0493,0.15184 0.0506,0.12403 0.16038,0.42571 0.20391,0.56028 0.0221,0.0683 0.0526,0.14908 0.0679,0.17945 0.0152,0.0304 0.0454,0.11112 0.0671,0.17944 0.0217,0.0683 0.073,0.2112 0.11399,0.31749 0.11349,0.29399 0.23129,0.61945 0.2798,0.77302 0.024,0.0759 0.0528,0.14425 0.064,0.15184 0.0112,0.008 0.0295,0.0573 0.0406,0.11043 0.0111,0.0531 0.0373,0.1339 0.0582,0.17945 0.0209,0.0456 0.0622,0.15115 0.0919,0.23466 0.0297,0.0835 0.0865,0.23881 0.12626,0.3451 0.0398,0.10629 0.0855,0.23673 0.10159,0.28988 0.0161,0.0531 0.0519,0.14632 0.0795,0.20706 0.0276,0.0607 0.0627,0.15391 0.078,0.20705 0.0354,0.12341 0.15927,0.457 0.21165,0.57013 0.0222,0.0479 0.0403,0.10188 0.0403,0.12006 0,0.0182 0.0184,0.0722 0.0409,0.12007 0.0225,0.0478 0.0588,0.1429 0.0807,0.21123 0.0219,0.0683 0.11625,0.32922 0.20974,0.57976 0.0935,0.25054 0.18182,0.49527 0.19628,0.54385 0.0145,0.0486 0.0445,0.12312 0.0666,0.16564 0.0222,0.0425 0.0404,0.0919 0.0405,0.10975 0,0.0178 0.0358,0.12343 0.0793,0.23466 0.0435,0.11123 0.0886,0.22709 0.1003,0.25746 0.0346,0.0901 0.26554,0.73305 0.32226,0.89725 0.0289,0.0835 0.0644,0.17669 0.0791,0.20705 0.0244,0.0506 0.0542,0.13152 0.17774,0.48314 0.024,0.0683 0.0549,0.14908 0.0686,0.17945 0.0137,0.0304 0.046,0.12354 0.0719,0.20705 0.0259,0.0835 0.0566,0.16427 0.0682,0.17945 0.0116,0.0152 0.0405,0.0897 0.0641,0.16565 0.037,0.11873 0.26325,0.74803 0.31272,0.86964 0.0333,0.0819 0.15012,0.40307 0.19579,0.53835 0.0256,0.0759 0.0539,0.14425 0.0628,0.15184 0.009,0.008 0.0362,0.0821 0.0607,0.16565 0.0245,0.0835 0.0834,0.25123 0.13102,0.3727 0.0476,0.12147 0.10562,0.28298 0.12901,0.3589 0.0234,0.0759 0.052,0.15046 0.0635,0.16564 0.0115,0.0152 0.0285,0.0594 0.0378,0.0982 0.009,0.0388 0.0378,0.1196 0.0634,0.17945 0.0256,0.0598 0.0997,0.2579 0.16461,0.44011 0.0649,0.18221 0.15036,0.41826 0.18995,0.52455 0.0396,0.10629 0.0887,0.24295 0.10916,0.30368 0.0334,0.0992 0.15734,0.43234 0.20028,0.53835 0.0396,0.0977 0.15236,0.41013 0.18937,0.52455 0.0221,0.0683 0.0526,0.14908 0.0679,0.17945 0.0152,0.0304 0.0454,0.11112 0.0671,0.17945 0.0435,0.13732 0.16885,0.47961 0.20719,0.56595 0.0135,0.0304 0.0717,0.19187 0.12928,0.3589 0.0576,0.16703 0.12078,0.33474 0.14033,0.3727 0.0195,0.038 0.0356,0.0858 0.0357,0.10626 0,0.0205 0.0186,0.0764 0.0411,0.12424 0.0225,0.0478 0.0675,0.16153 0.10007,0.25264 0.1016,0.28433 0.156,0.43384 0.24612,0.67638 0.048,0.12907 0.10384,0.28436 0.12419,0.3451 0.0204,0.0607 0.0874,0.24088 0.14895,0.40031 0.0616,0.15943 0.11214,0.30043 0.11237,0.31332 2.8e-4,0.0129 0.0189,0.0626 0.0414,0.11043 0.0225,0.0478 0.0591,0.1429 0.0814,0.21123 0.0222,0.0683 0.0768,0.22362 0.1213,0.34509 0.0445,0.12148 0.13249,0.36373 0.1956,0.53835 0.0631,0.17462 0.13297,0.35664 0.15524,0.40448 0.0223,0.0478 0.0405,0.10188 0.0405,0.12007 0,0.0182 0.0183,0.0722 0.0407,0.12006 0.0791,0.16924 0.28701,0.78538 0.27052,0.80187 -0.009,0.009 -2.25483,0.0167 -4.99028,0.0167 h -4.97355 l -0.091,-0.24157 c -0.14192,-0.37657 -0.1838,-0.49008 -0.33351,-0.90415 -0.0769,-0.21258 -0.16412,-0.44472 -0.19391,-0.51586 -0.0298,-0.0711 -0.0542,-0.14381 -0.0542,-0.16148 0,-0.0177 -0.0184,-0.0713 -0.0409,-0.11911 -0.0225,-0.0479 -0.0588,-0.1429 -0.0805,-0.21123 -0.0218,-0.0683 -0.078,-0.22362 -0.12508,-0.3451 -0.047,-0.12147 -0.13032,-0.3513 -0.18505,-0.51074 -0.0547,-0.15943 -0.11612,-0.32715 -0.13642,-0.3727 -0.0203,-0.0455 -0.0544,-0.13252 -0.0759,-0.19325 -0.0214,-0.0607 -0.0982,-0.27194 -0.17055,-0.46933 -0.0724,-0.1974 -0.16035,-0.43965 -0.19547,-0.53835 -0.0351,-0.0987 -0.094,-0.2602 -0.13099,-0.3589 -0.0369,-0.0987 -0.11855,-0.32232 -0.18138,-0.49694 -0.0628,-0.17462 -0.12647,-0.34233 -0.14144,-0.3727 -0.015,-0.0304 -0.0452,-0.11112 -0.0672,-0.17945 -0.022,-0.0683 -0.0763,-0.22362 -0.1208,-0.3451 -0.0445,-0.12147 -0.13249,-0.36373 -0.1956,-0.53835 -0.0631,-0.17461 -0.13297,-0.35663 -0.15524,-0.40448 -0.0223,-0.0478 -0.0405,-0.10187 -0.0405,-0.12006 0,-0.0182 -0.0182,-0.0722 -0.0405,-0.12006 -0.0223,-0.0478 -0.0909,-0.22987 -0.15252,-0.40449 -0.0616,-0.17461 -0.11974,-0.33612 -0.12916,-0.35889 -0.0362,-0.0876 -0.15135,-0.40593 -0.18972,-0.52455 -0.0221,-0.0683 -0.0523,-0.14908 -0.0672,-0.17945 -0.0149,-0.0304 -0.0709,-0.17945 -0.12451,-0.33129 -0.0536,-0.15184 -0.10883,-0.30092 -0.12269,-0.33129 -0.0139,-0.0304 -0.0525,-0.13597 -0.0858,-0.23467 -0.0615,-0.18202 -0.10453,-0.30126 -0.23413,-0.64878 -0.0396,-0.10629 -0.0961,-0.26158 -0.1255,-0.34509 -0.0294,-0.0835 -0.0654,-0.17669 -0.08,-0.20706 -0.0291,-0.0604 -0.11575,-0.30734 -0.18404,-0.52454 -0.0239,-0.0759 -0.0533,-0.15047 -0.0654,-0.16565 -0.0121,-0.0152 -0.0413,-0.093 -0.0648,-0.17299 -0.0236,-0.08 -0.0524,-0.16071 -0.0641,-0.17945 -0.0232,-0.0373 -0.12309,-0.31348 -0.19204,-0.531 -0.0241,-0.0759 -0.0514,-0.15047 -0.0607,-0.16565 -0.009,-0.0152 -0.0433,-0.10215 -0.0755,-0.19325 -0.0322,-0.0911 -0.14318,-0.39548 -0.24657,-0.67639 -0.10339,-0.28091 -0.2114,-0.57907 -0.24003,-0.66258 -0.0286,-0.0835 -0.064,-0.17669 -0.0787,-0.20706 -0.0146,-0.0304 -0.0506,-0.12355 -0.08,-0.20706 -0.19439,-0.55296 -0.28154,-0.79379 -0.30471,-0.84203 -0.0146,-0.0304 -0.0499,-0.12355 -0.0786,-0.20706 -0.083,-0.24222 -0.27972,-0.78166 -0.30704,-0.84203 -0.0137,-0.0304 -0.0464,-0.11733 -0.0725,-0.19325 -0.0511,-0.14845 -0.15892,-0.44315 -0.18687,-0.51075 -0.009,-0.0228 -0.0673,-0.18428 -0.12866,-0.3589 -0.0613,-0.17461 -0.12278,-0.34233 -0.13652,-0.3727 -0.0137,-0.0304 -0.0437,-0.11112 -0.0666,-0.17945 -0.0228,-0.0683 -0.0745,-0.2112 -0.11479,-0.31749 -0.0403,-0.10628 -0.12237,-0.32991 -0.18242,-0.49693 -0.0601,-0.16703 -0.1274,-0.34283 -0.14968,-0.39068 -0.0223,-0.0479 -0.0405,-0.10145 -0.0405,-0.11912 0,-0.0177 -0.0234,-0.0903 -0.0521,-0.16147 -0.0286,-0.0711 -0.0918,-0.24117 -0.14033,-0.37782 -0.0486,-0.13666 -0.10491,-0.28574 -0.12525,-0.33129 -0.0203,-0.0456 -0.0582,-0.15116 -0.0842,-0.23467 -0.026,-0.0835 -0.0563,-0.16426 -0.0673,-0.17945 -0.0111,-0.0152 -0.029,-0.0649 -0.0399,-0.11043 -0.0109,-0.0455 -0.0372,-0.12009 -0.0586,-0.16565 -0.0213,-0.0455 -0.0568,-0.13872 -0.0787,-0.20705 -0.0451,-0.14035 -0.17058,-0.4824 -0.20768,-0.56596 -0.0135,-0.0304 -0.0717,-0.19187 -0.12929,-0.3589 -0.0576,-0.16702 -0.12077,-0.33474 -0.14032,-0.3727 -0.0196,-0.038 -0.0356,-0.0858 -0.0357,-0.10626 0,-0.0205 -0.0186,-0.0764 -0.0411,-0.12423 -0.0225,-0.0478 -0.0651,-0.15533 -0.0946,-0.23884 -0.0296,-0.0835 -0.11219,-0.31335 -0.18364,-0.51074 -0.0714,-0.1974 -0.15375,-0.42723 -0.18291,-0.51074 -0.0292,-0.0835 -0.0698,-0.18912 -0.0903,-0.23467 -0.0205,-0.0456 -0.0502,-0.1263 -0.0659,-0.17945 -0.0157,-0.0531 -0.0622,-0.18359 -0.10338,-0.28988 -0.0411,-0.10629 -0.0963,-0.25537 -0.12255,-0.33129 l -0.0477,-0.13804 -0.0344,0.0828 c -0.0189,0.0456 -0.045,0.10766 -0.058,0.13803 -0.0276,0.0645 -0.18569,0.49295 -0.21899,0.59357 -0.0126,0.038 -0.0529,0.14977 -0.0895,0.24847 -0.0367,0.0987 -0.14972,0.40928 -0.25122,0.69019 -0.1015,0.2809 -0.202779,0.54989 -0.225067,0.59773 -0.02229,0.0478 -0.04052,0.10188 -0.04052,0.12007 0,0.0182 -0.01822,0.0722 -0.04049,0.12006 -0.02227,0.0478 -0.09091,0.22986 -0.152524,0.40448 -0.06162,0.17462 -0.119737,0.33612 -0.129154,0.3589 -0.02795,0.0676 -0.135772,0.36229 -0.186868,0.51074 -0.02613,0.0759 -0.05861,0.16289 -0.07218,0.19325 -0.01357,0.0304 -0.04434,0.11112 -0.06839,0.17945 -0.05319,0.15111 -0.14542,0.40443 -0.261337,0.7178 -0.106206,0.28712 -0.28859,0.7887 -0.361397,0.99388 -0.02963,0.0835 -0.07228,0.19099 -0.09476,0.23883 -0.02249,0.0478 -0.04096,0.10376 -0.04106,0.12424 0,0.0205 -0.01679,0.0691 -0.03711,0.10803 -0.02032,0.0389 -0.0884,0.21907 -0.151282,0.40031 -0.06289,0.18124 -0.152839,0.42891 -0.19989,0.55038 -0.04705,0.12147 -0.103115,0.27677 -0.124585,0.3451 -0.02147,0.0683 -0.0515,0.14908 -0.06672,0.17945 -0.01522,0.0304 -0.04535,0.11112 -0.06694,0.17944 -0.02159,0.0683 -0.109798,0.31059 -0.196006,0.53835 -0.08621,0.22777 -0.173621,0.46381 -0.19425,0.52455 -0.02063,0.0607 -0.06988,0.19739 -0.10945,0.30368 -0.03957,0.10629 -0.09621,0.26158 -0.125874,0.3451 -0.02966,0.0835 -0.07233,0.19099 -0.09482,0.23883 -0.02249,0.0479 -0.04089,0.10188 -0.04089,0.12007 0,0.0182 -0.0175,0.0722 -0.03889,0.12006 -0.04362,0.0976 -0.137033,0.37532 -0.196392,0.58393 -0.0216,0.0759 -0.06446,0.18725 -0.09525,0.2474 -0.03078,0.0602 -0.05597,0.13504 -0.05597,0.16641 0,0.0314 -0.01698,0.0815 -0.03774,0.1115 -0.02076,0.03 -0.05867,0.12899 -0.08425,0.2201 -0.02558,0.0911 -0.07286,0.22155 -0.105083,0.28988 -0.09088,0.19274 -0.10058,0.21913 -0.172578,0.46933 -0.07773,0.27011 -0.18187,0.56635 -0.229866,0.65387 -0.01819,0.0332 -0.03307,0.0806 -0.03307,0.10534 0,0.0248 -0.01488,0.0722 -0.03307,0.10534 -0.03362,0.0613 -0.109111,0.26411 -0.227973,0.61246 -0.08495,0.24896 -0.134568,0.37849 -0.160367,0.41865 -0.01136,0.0177 -0.04672,0.11706 -0.07858,0.22086 -0.03187,0.10379 -0.06688,0.20114 -0.07782,0.21632 -0.01094,0.0152 -0.03556,0.0835 -0.05471,0.15184 -0.01915,0.0683 -0.05076,0.14927 -0.07023,0.17986 -0.01947,0.0306 -0.04456,0.0989 -0.05574,0.15184 -0.01119,0.0529 -0.03743,0.13349 -0.05832,0.17905 -0.02089,0.0456 -0.0619,0.15115 -0.09113,0.23466 -0.08948,0.25563 -0.141956,0.39655 -0.179919,0.48313 -0.01997,0.0456 -0.0524,0.14494 -0.07207,0.22087 -0.01967,0.0759 -0.04543,0.15074 -0.05726,0.16628 -0.03095,0.0406 -0.162115,0.39402 -0.194209,0.52323 -0.01499,0.0604 -0.03614,0.11627 -0.04699,0.12423 -0.01085,0.008 -0.04035,0.0766 -0.06556,0.15252 -0.124652,0.37535 -0.296156,0.84814 -0.31841,0.87777 -0.01375,0.0183 -0.04096,0.0892 -0.06046,0.15752 -0.0195,0.0683 -0.04858,0.15529 -0.06461,0.19325 -0.04651,0.1101 -0.157137,0.41573 -0.204851,0.56596 -0.02411,0.0759 -0.05272,0.14425 -0.06357,0.15184 -0.01875,0.0131 -0.04032,0.0873 -0.07405,0.25448 -0.0083,0.0413 -0.03242,0.0894 -0.05354,0.10691 -0.02112,0.0175 -0.03841,0.05 -0.03841,0.0721 0,0.0221 -0.02933,0.11689 -0.06517,0.21058 -0.03585,0.0937 -0.08157,0.22626 -0.101602,0.29459 -0.02003,0.0683 -0.04693,0.13831 -0.05976,0.15551 -0.01283,0.0172 -0.07075,0.16628 -0.128704,0.33129 -0.05795,0.16501 -0.125971,0.34812 -0.151146,0.40692 -0.02517,0.0588 -0.04585,0.12091 -0.04594,0.13804 0,0.0171 -0.01766,0.0647 -0.03904,0.10564 -0.02138,0.041 -0.05927,0.14658 -0.08419,0.23467 -0.02492,0.0881 -0.06326,0.20053 -0.08519,0.24988 -0.02193,0.0493 -0.05782,0.1301 -0.07975,0.17945 -0.02193,0.0494 -0.06094,0.16411 -0.08669,0.25504 -0.02575,0.0909 -0.05741,0.18409 -0.07035,0.20705 -0.02304,0.0409 -0.0585,0.13613 -0.164574,0.44206 -0.02896,0.0835 -0.0642,0.17669 -0.07832,0.20706 -0.01412,0.0304 -0.04035,0.1049 -0.05828,0.16564 -0.01793,0.0607 -0.0474,0.13528 -0.06547,0.16565 -0.01807,0.0304 -0.04902,0.11112 -0.06877,0.17945 -0.01975,0.0683 -0.05166,0.15529 -0.07091,0.19325 -0.01925,0.038 -0.05029,0.13428 -0.06896,0.21404 -0.01868,0.0798 -0.04461,0.15161 -0.05762,0.15965 -0.01301,0.008 -0.04446,0.0888 -0.06988,0.17937 -0.02542,0.0906 -0.05701,0.16474 -0.07019,0.16474 -0.01318,0 -0.02397,0.0255 -0.02397,0.0566 0,0.0311 -0.06212,0.21307 -0.138038,0.40436 -0.07592,0.1913 -0.138038,0.36467 -0.138038,0.38527 0,0.0206 -0.02485,0.0838 -0.05521,0.14047 -0.03037,0.0567 -0.05522,0.12218 -0.05522,0.1456 0,0.0234 -0.0193,0.0701 -0.04289,0.10381 -0.02359,0.0337 -0.06133,0.13202 -0.08385,0.21852 -0.02253,0.0865 -0.05171,0.17043 -0.06484,0.18648 -0.01313,0.0161 -0.0384,0.0851 -0.05615,0.15342 -0.01775,0.0683 -0.05599,0.17423 -0.08496,0.23533 -0.02898,0.0611 -0.06131,0.15422 -0.07185,0.20694 -0.01054,0.0527 -0.03335,0.11002 -0.05068,0.12735 -0.01733,0.0173 -0.0469,0.10029 -0.06571,0.18434 -0.01881,0.0841 -0.05216,0.16773 -0.07411,0.18595 -0.02195,0.0182 -0.03991,0.0576 -0.03991,0.0876 0,0.03 -0.01743,0.0874 -0.03872,0.12776 -0.04386,0.083 -0.126921,0.34984 -0.126921,0.40774 0,0.021 -0.0097,0.0382 -0.02149,0.0382 -0.01182,0 -0.04446,0.0776 -0.07253,0.17254 -0.02807,0.0949 -0.0681,0.19706 -0.08894,0.22701 -0.02084,0.03 -0.03797,0.0796 -0.03807,0.11043 0,0.0308 -0.01737,0.0889 -0.03839,0.12923 -0.02102,0.0403 -0.05361,0.12104 -0.07241,0.17944 -0.0188,0.0584 -0.05013,0.13726 -0.0696,0.17522 -0.01948,0.038 -0.05685,0.14356 -0.08306,0.23467 -0.02621,0.0911 -0.05643,0.17807 -0.06717,0.19325 -0.01074,0.0152 -0.03549,0.0866 -0.055,0.15874 -0.01951,0.0721 -0.04358,0.13114 -0.05347,0.13114 -0.01684,0 -0.06146,0.13663 -0.101416,0.31059 -0.0096,0.0417 -0.02852,0.0759 -0.04206,0.0759 -0.01354,0 -0.0248,0.0217 -0.02503,0.0483 -5.8e-4,0.0685 -0.06708,0.25109 -0.105378,0.28939 -0.01774,0.0177 -0.03224,0.0506 -0.03224,0.0731 0,0.0515 -0.04996,0.20522 -0.113263,0.34844 -0.02685,0.0607 -0.05705,0.15615 -0.06711,0.21204 -0.01007,0.0559 -0.03572,0.1083 -0.057,0.11647 -0.02128,0.008 -0.03878,0.0432 -0.03887,0.0778 0,0.0346 -0.01766,0.0965 -0.03904,0.1375 -0.02138,0.041 -0.05928,0.14658 -0.08422,0.23466 -0.02494,0.0881 -0.07065,0.21529 -0.101574,0.28267 -0.03092,0.0674 -0.0629,0.16366 -0.07106,0.21396 -0.0082,0.0503 -0.02402,0.0914 -0.03525,0.0914 -0.01122,0 -0.03637,0.059 -0.05589,0.13114 -0.01951,0.0721 -0.04408,0.14356 -0.05459,0.15875 -0.01051,0.0152 -0.04089,0.0959 -0.06751,0.17944 -0.02662,0.0835 -0.0583,0.15806 -0.07039,0.16565 -0.01209,0.008 -0.02637,0.0449 -0.03173,0.0828 l -0.0097,0.069 18.472176,0.007 18.47218,0.007 0.0151,-14.02041 c 0.008,-7.71122 0.008,-19.89862 0,-27.0831 L 125.75109,203.85 H 88.167291 50.583726 v 27.08309 27.08309 h 9.072061 c 7.877272,0 9.070054,0.005 9.056833,0.0397 -0.0084,0.0218 -0.02868,0.0896 -0.04512,0.15068 -0.01644,0.061 -0.04163,0.11825 -0.05599,0.12712 -0.01436,0.009 -0.0396,0.0684 -0.05608,0.13231 -0.01649,0.0639 -0.04724,0.15395 -0.06834,0.20015 -0.0211,0.0462 -0.05433,0.14557 -0.07385,0.22086 -0.01952,0.0753 -0.04376,0.14309 -0.05387,0.15068 -0.01011,0.008 -0.04017,0.0821 -0.06679,0.16564 -0.02662,0.0835 -0.05801,0.16444 -0.06975,0.17982 -0.01174,0.0154 -0.03686,0.0896 -0.05583,0.16489 -0.01896,0.0753 -0.05086,0.16831 -0.07089,0.20669 -0.02003,0.0384 -0.0365,0.0849 -0.03659,0.10345 0,0.0185 -0.02292,0.0744 -0.05071,0.12423 -0.0278,0.0498 -0.0738,0.17753 -0.102231,0.28382 -0.02843,0.10629 -0.0678,0.20967 -0.08749,0.22973 -0.01969,0.0201 -0.03581,0.0658 -0.03581,0.10156 0,0.0358 -0.01642,0.0815 -0.03648,0.10156 -0.02007,0.0201 -0.05968,0.12344 -0.08803,0.22973 -0.02835,0.10629 -0.06007,0.19947 -0.07049,0.20706 -0.01041,0.008 -0.02805,0.0573 -0.03918,0.11043 -0.01114,0.0531 -0.04262,0.1339 -0.06996,0.17945 -0.02734,0.0455 -0.06401,0.13873 -0.0815,0.20706 -0.01748,0.0683 -0.05419,0.17392 -0.08156,0.23466 -0.02738,0.0607 -0.05826,0.15702 -0.06862,0.21396 -0.01036,0.0569 -0.02874,0.10353 -0.04083,0.10353 -0.01209,0 -0.03702,0.0528 -0.0554,0.11733 -0.01838,0.0645 -0.05031,0.1546 -0.07097,0.20016 -0.02066,0.0456 -0.05246,0.13872 -0.07067,0.20705 -0.01821,0.0683 -0.05522,0.16772 -0.08224,0.22086 -0.02702,0.0532 -0.05825,0.14011 -0.0694,0.19326 -0.01115,0.0531 -0.02879,0.10284 -0.03921,0.11043 -0.01042,0.008 -0.04129,0.0977 -0.06862,0.20015 -0.02733,0.1025 -0.06073,0.18636 -0.07422,0.18636 -0.0135,0 -0.02454,0.025 -0.02454,0.0556 0,0.0306 -0.01242,0.0803 -0.02761,0.11043 -0.06332,0.12577 -0.07613,0.15902 -0.122224,0.31711 -0.02656,0.0911 -0.06406,0.1967 -0.08333,0.23466 -0.01927,0.038 -0.05194,0.12803 -0.07261,0.20016 -0.02067,0.0721 -0.0459,0.13114 -0.05608,0.13114 -0.01018,0 -0.02723,0.0466 -0.03789,0.10352 -0.01066,0.057 -0.041,0.15323 -0.06743,0.21396 -0.02643,0.0607 -0.06456,0.16323 -0.08474,0.22777 -0.02018,0.0645 -0.04574,0.11733 -0.05681,0.11733 -0.01106,0 -0.02884,0.0466 -0.0395,0.10353 -0.01066,0.0569 -0.04341,0.15633 -0.07278,0.22086 -0.02937,0.0645 -0.06093,0.15771 -0.07014,0.20706 -0.0092,0.0493 -0.03816,0.12699 -0.06435,0.17254 -0.02619,0.0456 -0.06425,0.14494 -0.08458,0.22086 -0.02034,0.0759 -0.05311,0.1691 -0.07283,0.20706 -0.01972,0.038 -0.03594,0.088 -0.03603,0.11119 0,0.0232 -0.01702,0.0667 -0.0376,0.0966 -0.02059,0.03 -0.05895,0.12278 -0.08525,0.2063 -0.0263,0.0835 -0.06472,0.18963 -0.08537,0.23582 -0.02065,0.0462 -0.04901,0.13497 -0.06301,0.19728 -0.014,0.0623 -0.0457,0.1422 -0.07045,0.17753 -0.02475,0.0353 -0.04499,0.0819 -0.04499,0.10338 0,0.0215 -0.02356,0.0902 -0.05235,0.1526 -0.02879,0.0624 -0.06784,0.16936 -0.08677,0.23769 -0.01893,0.0683 -0.05676,0.17393 -0.08407,0.23467 -0.02731,0.0607 -0.05794,0.14459 -0.06807,0.18635 l -0.01842,0.0759 H 52.471855 40.03761 Z m 17.25477,19.5101 c 0,-0.0103 0.206056,-0.59439 0.230744,-0.65409 0.0094,-0.0228 0.04152,-0.10974 0.07132,-0.19325 0.02981,-0.0835 0.0867,-0.23881 0.126425,-0.3451 0.03973,-0.10629 0.09121,-0.24916 0.114398,-0.31748 0.02319,-0.0683 0.05815,-0.16151 0.07767,-0.20706 0.01953,-0.0455 0.05033,-0.13252 0.06845,-0.19326 0.01812,-0.0607 0.04962,-0.1477 0.06999,-0.19325 0.02037,-0.0456 0.0769,-0.19463 0.125627,-0.33129 0.04873,-0.13666 0.104488,-0.28574 0.123914,-0.33129 0.01943,-0.0455 0.0511,-0.13873 0.07038,-0.20706 0.01928,-0.0683 0.04366,-0.13666 0.05418,-0.15184 0.01052,-0.0152 0.04086,-0.0942 0.06744,-0.17566 0.02658,-0.0814 0.06541,-0.18082 0.08631,-0.22086 0.02089,-0.0401 0.03814,-0.0915 0.03833,-0.11422 1.93e-4,-0.0228 0.01634,-0.0725 0.03589,-0.11043 0.01955,-0.038 0.0827,-0.20568 0.140326,-0.37271 0.05763,-0.16702 0.115806,-0.32853 0.129288,-0.3589 0.03833,-0.0863 0.163637,-0.42863 0.20718,-0.56595 0.02167,-0.0683 0.05095,-0.14908 0.06508,-0.17945 0.02693,-0.0579 0.114757,-0.2996 0.185576,-0.51074 0.02292,-0.0683 0.053,-0.14908 0.06684,-0.17945 0.03579,-0.0785 0.270477,-0.72136 0.317485,-0.86964 0.02166,-0.0683 0.05157,-0.14908 0.06646,-0.17945 0.02687,-0.0548 0.233152,-0.61722 0.632866,-1.72548 0.06298,-0.17462 0.122214,-0.33612 0.131631,-0.3589 0.04207,-0.10175 0.1537,-0.41261 0.19332,-0.53835 0.02392,-0.0759 0.05311,-0.15046 0.06487,-0.16564 0.01176,-0.0152 0.04067,-0.0897 0.06425,-0.16565 0.02358,-0.0759 0.07616,-0.225 0.116844,-0.33129 0.0728,-0.19019 0.116253,-0.30817 0.335565,-0.91105 0.06076,-0.16703 0.11818,-0.32232 0.1276,-0.3451 0.0094,-0.0228 0.04129,-0.10974 0.07083,-0.19325 0.02954,-0.0835 0.08614,-0.23881 0.125777,-0.3451 0.136509,-0.36606 0.183815,-0.4974 0.237164,-0.65849 0.02942,-0.0889 0.06238,-0.17583 0.07323,-0.19326 0.02293,-0.0368 0.128875,-0.32876 0.191851,-0.52863 0.02392,-0.0759 0.05311,-0.15046 0.06487,-0.16564 0.01176,-0.0152 0.04052,-0.0897 0.0639,-0.16565 0.02339,-0.0759 0.08118,-0.23743 0.128431,-0.3589 0.04725,-0.12147 0.108752,-0.28919 0.136674,-0.3727 0.02792,-0.0835 0.08431,-0.23881 0.125308,-0.3451 0.041,-0.10629 0.09206,-0.24916 0.113465,-0.31749 0.02141,-0.0683 0.05118,-0.14908 0.06615,-0.17944 0.02597,-0.0527 0.337578,-0.90855 0.44728,-1.22854 0.02863,-0.0835 0.06385,-0.17669 0.07826,-0.20706 0.01441,-0.0304 0.07761,-0.19809 0.140432,-0.3727 0.06282,-0.17462 0.144446,-0.39824 0.181379,-0.49694 0.03693,-0.0987 0.0958,-0.2602 0.130802,-0.3589 0.163371,-0.46057 0.29551,-0.81933 0.320312,-0.86964 0.01497,-0.0304 0.04473,-0.11112 0.06614,-0.17945 0.02141,-0.0683 0.07201,-0.2112 0.112457,-0.31749 0.07778,-0.2044 0.287484,-0.78033 0.376963,-1.03529 0.02931,-0.0835 0.06484,-0.17668 0.07895,-0.20705 0.01411,-0.0304 0.04908,-0.12355 0.07772,-0.20706 0.06205,-0.181 0.413181,-1.15549 0.437697,-1.21474 0.02062,-0.0498 0.101113,-0.2675 0.250119,-0.67638 0.06087,-0.16703 0.118117,-0.32232 0.127216,-0.3451 0.05158,-0.12909 0.163697,-0.44149 0.188251,-0.52454 0.01571,-0.0531 0.04554,-0.1339 0.06629,-0.17945 0.03236,-0.0711 0.200627,-0.52757 0.442661,-1.20093 0.03548,-0.0987 0.09682,-0.26642 0.136332,-0.37271 0.03951,-0.10629 0.09587,-0.26158 0.125264,-0.34509 0.02938,-0.0835 0.06486,-0.17669 0.07882,-0.20706 0.01396,-0.0304 0.04387,-0.11112 0.06646,-0.17945 0.02259,-0.0683 0.07423,-0.2112 0.114773,-0.31749 0.04054,-0.10629 0.102237,-0.274 0.137105,-0.3727 0.03487,-0.0987 0.0889,-0.24778 0.120077,-0.33129 0.03117,-0.0835 0.115253,-0.31335 0.18684,-0.51074 0.165011,-0.455 0.247668,-0.67907 0.269873,-0.73161 0.0096,-0.0228 0.04404,-0.11595 0.07646,-0.20705 0.08799,-0.2472 0.150942,-0.42005 0.231249,-0.63498 0.03972,-0.10629 0.09737,-0.26779 0.128122,-0.3589 0.03075,-0.0911 0.06725,-0.19049 0.08112,-0.22086 0.01387,-0.0304 0.06908,-0.17945 0.122689,-0.33129 0.05361,-0.15184 0.109188,-0.30092 0.1235,-0.33129 0.01431,-0.0304 0.04945,-0.12355 0.07808,-0.20706 0.02863,-0.0835 0.136528,-0.38167 0.239775,-0.66258 0.103247,-0.28091 0.211146,-0.57907 0.239775,-0.66259 0.02863,-0.0835 0.06386,-0.17668 0.07829,-0.20705 0.02684,-0.0565 0.3534,-0.95479 0.446606,-1.22854 0.02844,-0.0835 0.06335,-0.17669 0.07759,-0.20706 0.01423,-0.0304 0.04553,-0.11112 0.06955,-0.17945 0.09565,-0.27215 0.152513,-0.42989 0.169185,-0.46933 0.02882,-0.0682 0.339988,-0.92156 0.452997,-1.24234 0.02942,-0.0835 0.06504,-0.17669 0.07915,-0.20706 0.01411,-0.0304 0.04057,-0.10491 0.05879,-0.16565 0.01822,-0.0607 0.04264,-0.12285 0.05427,-0.13803 0.01162,-0.0152 0.03408,-0.0711 0.04989,-0.12424 0.02417,-0.0812 0.150512,-0.43578 0.206586,-0.57976 0.06911,-0.17746 0.212123,-0.57739 0.212123,-0.59321 0,-0.0108 0.01798,-0.0588 0.03996,-0.10661 0.02198,-0.0479 0.06383,-0.15532 0.09302,-0.23884 0.128839,-0.36866 0.272741,-0.76484 0.286437,-0.78857 0.0082,-0.0142 0.04244,-0.10971 0.07608,-0.2122 l 0.06116,-0.18636 h 5.058436 5.058436 l 0.04659,0.10561 c 0.02563,0.0581 0.0644,0.16057 0.08615,0.22776 0.04566,0.14098 0.171347,0.48279 0.20735,0.56388 0.01348,0.0304 0.07166,0.19187 0.129287,0.3589 0.05763,0.16703 0.120775,0.33474 0.140326,0.3727 0.01956,0.038 0.03563,0.0858 0.03572,0.10626 0,0.0205 0.01857,0.0764 0.04106,0.12424 0.02249,0.0478 0.06506,0.15532 0.09462,0.23883 0.02955,0.0835 0.112186,0.31335 0.183635,0.51075 0.07145,0.19739 0.153758,0.42722 0.182914,0.51074 0.02916,0.0835 0.06981,0.18911 0.09033,0.23466 0.02053,0.0455 0.05018,0.12631 0.0659,0.17945 0.01571,0.0531 0.06198,0.18359 0.102827,0.28988 0.140098,0.3646 0.209109,0.55238 0.263115,0.71594 0.02974,0.0901 0.06421,0.17704 0.0766,0.19325 0.01239,0.0162 0.0388,0.0916 0.0587,0.16751 0.0199,0.0759 0.04503,0.15046 0.05585,0.16564 0.01082,0.0152 0.04159,0.0959 0.06839,0.17945 0.02679,0.0835 0.05796,0.16427 0.06926,0.17945 0.0113,0.0152 0.03961,0.0897 0.06293,0.16565 0.02331,0.0759 0.07531,0.225 0.115558,0.33129 0.100083,0.26434 0.314116,0.85045 0.378064,1.03529 0.02889,0.0835 0.06408,0.17669 0.07819,0.20705 0.01411,0.0304 0.04908,0.12355 0.07771,0.20706 0.02863,0.0835 0.136528,0.38168 0.239775,0.66258 0.103247,0.28091 0.211362,0.57907 0.240256,0.66259 0.02889,0.0835 0.06913,0.18911 0.08942,0.23466 0.02029,0.0456 0.04586,0.11388 0.05683,0.15184 0.01097,0.038 0.03589,0.10629 0.05538,0.15185 0.01949,0.0455 0.0823,0.21948 0.139571,0.3865 0.05727,0.16703 0.113221,0.31611 0.124325,0.3313 0.0111,0.0152 0.03956,0.0897 0.06323,0.16564 0.02367,0.0759 0.07545,0.225 0.115052,0.33129 0.03961,0.10629 0.09606,0.26158 0.125446,0.3451 0.02939,0.0835 0.06486,0.17669 0.07882,0.20706 0.01396,0.0304 0.04677,0.11733 0.0729,0.19325 0.05379,0.15627 0.160911,0.44844 0.18726,0.51074 0.0096,0.0228 0.0409,0.10974 0.06948,0.19325 0.02858,0.0835 0.08544,0.23881 0.126349,0.3451 0.04091,0.10629 0.09346,0.25537 0.11678,0.33129 0.02332,0.0759 0.05192,0.15046 0.06354,0.16565 0.01163,0.0152 0.04306,0.0959 0.06986,0.17945 0.02679,0.0835 0.05757,0.16426 0.06839,0.17945 0.01082,0.0152 0.03595,0.0897 0.05585,0.16564 0.0199,0.0759 0.04503,0.15046 0.05585,0.16565 0.01082,0.0152 0.04159,0.0959 0.06839,0.17945 0.02679,0.0835 0.05796,0.16426 0.06926,0.17945 0.0113,0.0152 0.03954,0.0897 0.06276,0.16564 0.02322,0.0759 0.07921,0.23743 0.124419,0.3589 0.04521,0.12147 0.131266,0.35752 0.191233,0.52455 l 0.109028,0.30368 -0.0457,0.13804 c -0.02514,0.0759 -0.06033,0.17301 -0.07819,0.21575 -0.01787,0.0428 -0.03249,0.0906 -0.03249,0.10626 0,0.0157 -0.01813,0.0677 -0.04028,0.11554 -0.05982,0.12918 -0.17884,0.45482 -0.221955,0.60726 -0.02081,0.0736 -0.06187,0.18538 -0.09126,0.24847 -0.02938,0.0631 -0.08687,0.2141 -0.127757,0.33557 -0.04088,0.12147 -0.09081,0.25813 -0.110955,0.30368 -0.02014,0.0456 -0.0456,0.11388 -0.05657,0.15184 -0.01097,0.038 -0.03641,0.10629 -0.05653,0.15185 -0.02012,0.0456 -0.0758,0.20084 -0.123732,0.34509 -0.04793,0.14425 -0.109633,0.31237 -0.137116,0.3736 -0.02748,0.0612 -0.06452,0.16537 -0.0823,0.23142 -0.01779,0.066 -0.04352,0.14019 -0.0572,0.16475 -0.03596,0.0646 -0.191597,0.48136 -0.19195,0.51399 -2.76e-4,0.0152 -0.01866,0.0628 -0.04109,0.10582 -0.02244,0.043 -0.05416,0.12998 -0.0705,0.19326 -0.01634,0.0633 -0.05219,0.16473 -0.07967,0.22546 -0.02748,0.0607 -0.05858,0.14149 -0.0691,0.17945 -0.01053,0.038 -0.03078,0.0939 -0.045,0.12424 -0.01422,0.0304 -0.0498,0.12354 -0.07906,0.20705 -0.135095,0.38556 -0.173338,0.48911 -0.21055,0.57013 -0.02198,0.0479 -0.03996,0.10188 -0.03996,0.12006 0,0.0182 -0.01765,0.0722 -0.03923,0.12007 -0.02157,0.0478 -0.08511,0.21744 -0.141191,0.37687 -0.05608,0.15944 -0.112686,0.31473 -0.125786,0.3451 -0.04048,0.0938 -0.165028,0.43521 -0.206486,0.56595 -0.02167,0.0683 -0.05098,0.14908 -0.06513,0.17945 -0.05469,0.1173 -0.222799,0.59692 -0.222799,0.63563 0,0.0224 -0.01007,0.0408 -0.02239,0.0408 -0.01231,0 -0.03876,0.0652 -0.05877,0.14494 -0.02001,0.0797 -0.04608,0.15736 -0.05792,0.17255 -0.01185,0.0152 -0.04711,0.10215 -0.07837,0.19325 -0.03126,0.0911 -0.08889,0.25261 -0.128063,0.3589 -0.03918,0.10629 -0.09549,0.26158 -0.125148,0.3451 -0.02966,0.0835 -0.06547,0.17668 -0.07959,0.20705 -0.01411,0.0304 -0.04003,0.10491 -0.0576,0.16565 -0.01757,0.0607 -0.05512,0.16186 -0.08345,0.22471 -0.02833,0.0629 -0.06002,0.14983 -0.07041,0.19326 -0.0104,0.0434 -0.02799,0.0914 -0.03911,0.10657 -0.01111,0.0152 -0.03511,0.0773 -0.05333,0.13804 -0.01822,0.0607 -0.0444,0.13528 -0.05818,0.16565 -0.03818,0.0842 -0.164086,0.42951 -0.196266,0.53835 -0.01571,0.0531 -0.04504,0.13389 -0.06517,0.17945 -0.02013,0.0456 -0.08267,0.21327 -0.138996,0.3727 -0.05632,0.15943 -0.118464,0.32715 -0.138096,0.3727 -0.01963,0.0455 -0.04434,0.1201 -0.05491,0.16565 -0.01057,0.0455 -0.03457,0.10767 -0.05334,0.13804 -0.01877,0.0304 -0.05338,0.11733 -0.07693,0.19325 -0.02355,0.0759 -0.08252,0.24364 -0.131048,0.3727 -0.04853,0.12907 -0.133814,0.36511 -0.189521,0.52455 -0.127293,0.36431 -0.142124,0.38948 -0.177658,0.3015 -0.03991,-0.0988 -0.142621,-0.37855 -0.196873,-0.53617 -0.02613,-0.0759 -0.05875,-0.16288 -0.0725,-0.19325 -0.01374,-0.0304 -0.07506,-0.19809 -0.136266,-0.3727 -0.0612,-0.17462 -0.122525,-0.34234 -0.136266,-0.37271 -0.01374,-0.0304 -0.04636,-0.11733 -0.0725,-0.19325 -0.05422,-0.15753 -0.15634,-0.43624 -0.197243,-0.53835 -0.01521,-0.038 -0.06884,-0.18704 -0.119191,-0.33129 -0.05035,-0.14425 -0.100356,-0.2747 -0.111131,-0.28988 -0.01078,-0.0152 -0.0409,-0.10215 -0.06694,-0.19325 -0.02605,-0.0911 -0.05731,-0.17807 -0.06948,-0.19326 -0.01217,-0.0152 -0.03487,-0.0711 -0.05045,-0.12423 -0.01558,-0.0532 -0.06746,-0.20223 -0.115279,-0.33129 -0.04782,-0.12907 -0.110916,-0.303 -0.14021,-0.38651 -0.0293,-0.0835 -0.06569,-0.17669 -0.08088,-0.20706 -0.01519,-0.0304 -0.04521,-0.11112 -0.0667,-0.17945 -0.02149,-0.0683 -0.07176,-0.2112 -0.111711,-0.31749 -0.03995,-0.10628 -0.09702,-0.26158 -0.12683,-0.34509 -0.02981,-0.0835 -0.06208,-0.17048 -0.0717,-0.19325 -0.03545,-0.0839 -0.149954,-0.40436 -0.192337,-0.53835 -0.02402,-0.0759 -0.05328,-0.15046 -0.06504,-0.16565 -0.01175,-0.0152 -0.04059,-0.0897 -0.06408,-0.16564 -0.02349,-0.0759 -0.07623,-0.22501 -0.117203,-0.3313 -0.04098,-0.10629 -0.128245,-0.34233 -0.193932,-0.52454 -0.06569,-0.18221 -0.151983,-0.41826 -0.191768,-0.52455 -0.08793,-0.2349 -0.188279,-0.50919 -0.247453,-0.67638 -0.02418,-0.0683 -0.05154,-0.14287 -0.06079,-0.16565 -0.03211,-0.0791 -0.149768,-0.40115 -0.201698,-0.55215 -0.02872,-0.0835 -0.102483,-0.28229 -0.163912,-0.44172 -0.06143,-0.15944 -0.111883,-0.29839 -0.112115,-0.30879 -2.76e-4,-0.0104 -0.01468,-0.0539 -0.03211,-0.0966 -0.0419,-0.10278 -0.142052,-0.37498 -0.201276,-0.54705 -0.02613,-0.0759 -0.05875,-0.16288 -0.0725,-0.19325 -0.01374,-0.0304 -0.07506,-0.19809 -0.136266,-0.3727 -0.0612,-0.17462 -0.122647,-0.34234 -0.136539,-0.37271 -0.01389,-0.0304 -0.03991,-0.103 -0.05781,-0.16141 -0.0179,-0.0584 -0.04975,-0.13916 -0.07077,-0.17945 -0.02102,-0.0403 -0.03835,-0.0857 -0.03852,-0.10086 -2.76e-4,-0.0258 -0.138276,-0.4017 -0.192563,-0.52454 -0.01342,-0.0304 -0.04557,-0.12355 -0.07143,-0.20706 -0.02587,-0.0835 -0.05655,-0.16427 -0.06817,-0.17945 -0.01163,-0.0152 -0.04056,-0.0897 -0.06429,-0.16565 -0.06974,-0.22311 -0.261,-0.75115 -0.319978,-0.88344 -0.01354,-0.0304 -0.04337,-0.11112 -0.06628,-0.17945 -0.06637,-0.19788 -0.157745,-0.45073 -0.184566,-0.51074 -0.01357,-0.0304 -0.04836,-0.12355 -0.0773,-0.20706 -0.02894,-0.0835 -0.08064,-0.23259 -0.114884,-0.33129 -0.07011,-0.20207 -0.126594,-0.28418 -0.150561,-0.21886 -0.10177,0.27734 -0.36706,1.01317 -0.407372,1.12991 -0.02884,0.0835 -0.07042,0.19099 -0.09239,0.23884 -0.02198,0.0478 -0.03996,0.0958 -0.03996,0.10661 0,0.0108 -0.04532,0.13936 -0.100718,0.28571 -0.137168,0.36239 -0.251121,0.68027 -0.303212,0.84585 -0.02388,0.0759 -0.05329,0.15046 -0.06535,0.16565 -0.01206,0.0152 -0.03486,0.0711 -0.05069,0.12423 -0.01582,0.0531 -0.07361,0.21465 -0.128428,0.3589 -0.05481,0.14425 -0.116589,0.31197 -0.137284,0.3727 -0.02069,0.0607 -0.07686,0.21603 -0.124809,0.3451 -0.04795,0.12906 -0.109373,0.29678 -0.136489,0.3727 -0.186216,0.5214 -0.281844,0.78039 -0.305815,0.82823 -0.01522,0.0304 -0.04575,0.11112 -0.06785,0.17945 -0.03837,0.11862 -0.153529,0.437 -0.189726,0.52454 -0.0094,0.0228 -0.06754,0.18429 -0.129154,0.3589 -0.06162,0.17462 -0.130252,0.35664 -0.152523,0.40449 -0.02227,0.0479 -0.04057,0.10375 -0.04066,0.12423 0,0.0205 -0.01617,0.0683 -0.03572,0.10626 -0.01955,0.038 -0.0829,0.20568 -0.140775,0.3727 -0.05787,0.16703 -0.123165,0.34413 -0.145091,0.39356 -0.02193,0.0494 -0.05707,0.1426 -0.0781,0.20705 -0.02103,0.0645 -0.07098,0.20415 -0.111016,0.31044 -0.04003,0.10629 -0.09849,0.2678 -0.129913,0.3589 -0.03142,0.0911 -0.06589,0.17807 -0.07659,0.19326 -0.0107,0.0152 -0.036,0.0897 -0.05621,0.16564 -0.02021,0.0759 -0.04413,0.14425 -0.05315,0.15184 -0.009,0.008 -0.03737,0.0759 -0.06301,0.15185 -0.04614,0.13666 -0.163219,0.45845 -0.19587,0.53835 -0.04552,0.11139 -0.164199,0.44325 -0.202392,0.56595 -0.02363,0.0759 -0.05059,0.15046 -0.0599,0.16565 -0.01606,0.0262 -0.07632,0.18975 -0.183055,0.49694 -0.02638,0.0759 -0.06403,0.1753 -0.08366,0.22086 -0.01963,0.0455 -0.04429,0.11388 -0.05479,0.15184 -0.01051,0.038 -0.04295,0.12168 -0.07209,0.18605 -0.02914,0.0644 -0.05299,0.13082 -0.05299,0.14767 0,0.0169 -0.01798,0.0698 -0.03996,0.11763 -0.02198,0.0478 -0.06377,0.15533 -0.09289,0.23884 -0.14928,0.42824 -0.300476,0.8477 -0.313952,0.871 -0.0084,0.0144 -0.03694,0.0929 -0.06353,0.1743 -0.02659,0.0814 -0.06543,0.18082 -0.08633,0.22086 -0.02089,0.04 -0.03807,0.0896 -0.03816,0.11005 0,0.0205 -0.01815,0.0764 -0.04013,0.12423 -0.02198,0.0479 -0.06668,0.16154 -0.09934,0.25264 -0.03266,0.0911 -0.08961,0.2464 -0.12655,0.3451 -0.03694,0.0987 -0.09104,0.24778 -0.120215,0.33129 -0.05566,0.15933 -0.173812,0.48147 -0.202521,0.55215 -0.0092,0.0228 -0.0366,0.0973 -0.06079,0.16565 -0.05644,0.15946 -0.155729,0.43116 -0.247185,0.67639 -0.07358,0.1973 -0.278489,0.76199 -0.375671,1.03528 -0.0297,0.0835 -0.07239,0.19099 -0.09488,0.23884 -0.02249,0.0479 -0.04089,0.10187 -0.04089,0.12006 0,0.0182 -0.01798,0.0722 -0.03996,0.12006 -0.04145,0.0902 -0.121645,0.30812 -0.209851,0.57013 -0.02812,0.0835 -0.09006,0.25123 -0.137658,0.37271 -0.0476,0.12147 -0.104105,0.27676 -0.125576,0.34509 -0.02147,0.0683 -0.05104,0.14908 -0.06571,0.17945 -0.01466,0.0304 -0.05033,0.12354 -0.07925,0.20706 -0.07949,0.22953 -0.268799,0.74833 -0.307256,0.84203 -0.0187,0.0455 -0.0506,0.13252 -0.0709,0.19325 -0.0203,0.0607 -0.0696,0.1974 -0.10955,0.30369 -0.03995,0.10629 -0.09668,0.26158 -0.126073,0.34509 -0.02939,0.0835 -0.06498,0.17669 -0.07909,0.20706 -0.01411,0.0304 -0.03982,0.10491 -0.05712,0.16565 -0.0173,0.0607 -0.04235,0.13527 -0.05566,0.16564 -0.05312,0.12116 -0.189792,0.48117 -0.216069,0.56914 -0.01535,0.0514 -0.06698,0.19283 -0.114718,0.31431 -0.04774,0.12147 -0.106844,0.28919 -0.131335,0.3727 -0.02449,0.0835 -0.05181,0.15805 -0.06071,0.16565 -0.0089,0.008 -0.03715,0.0759 -0.06279,0.15184 -0.05438,0.16105 -0.165072,0.46328 -0.21026,0.57407 -0.0173,0.0424 -0.03949,0.11076 -0.04929,0.15185 -0.0098,0.0411 -0.02733,0.0871 -0.03894,0.10231 -0.01966,0.0257 -0.04273,0.0891 -0.19099,0.52454 -0.03102,0.0911 -0.06804,0.19049 -0.08227,0.22086 -0.01423,0.0304 -0.07149,0.18566 -0.127243,0.3451 -0.05575,0.15943 -0.122352,0.33336 -0.148005,0.3865 l -0.04664,0.0966 -4.988735,0.007 c -2.743803,0.004 -4.988733,0.003 -4.988733,-0.002 z"
         id="path302" /><path
         style="display:inline;fill:#2a4592;fill-opacity:1;stroke-width:0.981159"
         d="m 40.03761,230.93342 v -37.54638 h 48.133907 48.133903 v 37.54638 37.54638 H 105.65098 74.996528 l 0.01358,-0.0759 c 0.0075,-0.0418 0.02914,-0.0946 0.04817,-0.11733 0.01902,-0.0228 0.05515,-0.11596 0.08028,-0.20706 11.128607,-30.09444 2.612153,-6.92538 20.616855,-56.4441 h 5.072637 5.07263 l 0.0348,0.11734 c 0.0192,0.0645 0.0584,0.16945 0.0872,0.23315 0.0288,0.0637 0.0528,0.13203 0.0533,0.15184 5.3e-4,0.0198 0.0249,0.0857 0.0543,0.14645 0.0293,0.0607 0.0538,0.12286 0.0544,0.13804 9.9e-4,0.0259 0.1399,0.40316 0.19314,0.52455 0.0133,0.0304 0.0494,0.12975 0.0801,0.22086 0.0307,0.0911 0.0884,0.25261 0.12812,0.3589 0.0834,0.22324 0.1482,0.40134 0.23098,0.63497 0.0323,0.0911 0.0701,0.19049 0.0841,0.22086 0.014,0.0304 0.0441,0.11112 0.067,0.17945 0.0708,0.21115 0.15865,0.45288 0.18558,0.51074 0.0141,0.0304 0.0434,0.11112 0.0651,0.17945 0.0415,0.13075 0.166,0.47212 0.20648,0.56596 0.0131,0.0304 0.0697,0.18566 0.12579,0.3451 0.0561,0.15943 0.11962,0.32902 0.14119,0.37687 0.0216,0.0479 0.0392,0.10187 0.0392,0.12006 0,0.0182 0.0184,0.0722 0.0409,0.12007 0.0225,0.0478 0.0675,0.16153 0.10007,0.25264 0.10131,0.28351 0.1559,0.43355 0.24609,0.67638 0.0479,0.12907 0.10755,0.29678 0.13248,0.37271 0.0249,0.0759 0.0518,0.14425 0.0597,0.15184 0.008,0.008 0.0564,0.13804 0.10775,0.28988 0.0514,0.15184 0.11017,0.31334 0.13067,0.3589 0.0205,0.0456 0.0552,0.13873 0.0772,0.20705 0.0451,0.14035 0.17058,0.4824 0.20768,0.56596 0.0135,0.0304 0.0712,0.19187 0.1282,0.3589 0.057,0.16703 0.1125,0.31611 0.12328,0.33129 0.0108,0.0152 0.0386,0.0897 0.0618,0.16565 0.0232,0.0759 0.0757,0.225 0.11667,0.33129 0.0793,0.20589 0.25095,0.6756 0.36317,0.99387 0.0375,0.10629 0.086,0.2324 0.10774,0.28025 0.0218,0.0479 0.0396,0.0997 0.0396,0.11525 0,0.0238 0.10913,0.31744 0.19158,0.51556 0.0126,0.0304 0.0689,0.18566 0.12494,0.34509 0.10277,0.29216 0.14723,0.41309 0.2758,0.75012 0.0387,0.10128 0.0707,0.19446 0.0712,0.20705 5.2e-4,0.0126 0.0249,0.0726 0.0543,0.13333 0.0293,0.0607 0.0538,0.1249 0.0543,0.14259 9.6e-4,0.033 0.14357,0.42736 0.20803,0.57521 0.0199,0.0455 0.0488,0.12631 0.0643,0.17945 0.0155,0.0531 0.0674,0.19601 0.1154,0.31749 0.0479,0.12147 0.10487,0.27677 0.12649,0.34509 0.0216,0.0683 0.0472,0.14287 0.0569,0.16565 0.029,0.0684 0.14669,0.39078 0.19651,0.53835 0.0256,0.0759 0.0532,0.14425 0.0612,0.15184 0.008,0.008 0.0411,0.0946 0.0736,0.19325 0.0324,0.0987 0.0921,0.26642 0.1327,0.37271 0.0406,0.10629 0.0928,0.25537 0.11616,0.33129 0.0233,0.0759 0.0519,0.15046 0.0636,0.16564 0.0117,0.0152 0.0367,0.0773 0.0557,0.13804 0.019,0.0607 0.05,0.1477 0.069,0.19326 0.019,0.0455 0.0804,0.21326 0.1365,0.3727 0.0561,0.15943 0.11315,0.31473 0.12685,0.34509 0.0137,0.0304 0.0506,0.12976 0.082,0.22087 0.0314,0.0911 0.0828,0.24018 0.11411,0.33129 0.0314,0.0911 0.0665,0.17807 0.0781,0.19325 0.0116,0.0152 0.0291,0.0612 0.0389,0.10231 0.01,0.0411 0.032,0.10942 0.0493,0.15184 0.0506,0.12403 0.16038,0.42571 0.20391,0.56028 0.0221,0.0683 0.0526,0.14908 0.0679,0.17945 0.0152,0.0304 0.0454,0.11112 0.0671,0.17944 0.0217,0.0683 0.073,0.2112 0.11399,0.31749 0.11349,0.29399 0.23129,0.61945 0.2798,0.77302 0.024,0.0759 0.0528,0.14425 0.064,0.15184 0.0112,0.008 0.0295,0.0573 0.0406,0.11043 0.0111,0.0531 0.0373,0.1339 0.0582,0.17945 0.0209,0.0456 0.0622,0.15115 0.0919,0.23466 0.0297,0.0835 0.0865,0.23881 0.12626,0.3451 0.0398,0.10629 0.0855,0.23673 0.10159,0.28988 0.0161,0.0531 0.0519,0.14632 0.0795,0.20706 0.0276,0.0607 0.0627,0.15391 0.078,0.20705 0.0354,0.12341 0.15927,0.457 0.21165,0.57013 0.0222,0.0479 0.0403,0.10188 0.0403,0.12006 0,0.0182 0.0184,0.0722 0.0409,0.12007 0.0225,0.0478 0.0588,0.1429 0.0807,0.21123 0.0219,0.0683 0.11625,0.32922 0.20974,0.57976 0.0935,0.25054 0.18182,0.49527 0.19628,0.54385 0.0145,0.0486 0.0445,0.12312 0.0666,0.16564 0.0222,0.0425 0.0404,0.0919 0.0405,0.10975 0,0.0178 0.0358,0.12343 0.0793,0.23466 0.0435,0.11123 0.0886,0.22709 0.1003,0.25746 0.0346,0.0901 0.26554,0.73305 0.32226,0.89725 0.0289,0.0835 0.0644,0.17669 0.0791,0.20705 0.0244,0.0506 0.0542,0.13152 0.17774,0.48314 0.024,0.0683 0.0549,0.14908 0.0686,0.17945 0.0137,0.0304 0.046,0.12354 0.0719,0.20705 0.0259,0.0835 0.0566,0.16427 0.0682,0.17945 0.0116,0.0152 0.0405,0.0897 0.0641,0.16565 0.037,0.11873 0.26325,0.74803 0.31272,0.86964 0.0333,0.0819 0.15012,0.40307 0.19579,0.53835 0.0256,0.0759 0.0539,0.14425 0.0628,0.15184 0.009,0.008 0.0362,0.0821 0.0607,0.16565 0.0245,0.0835 0.0834,0.25123 0.13102,0.3727 0.0476,0.12147 0.10562,0.28298 0.12901,0.3589 0.0234,0.0759 0.052,0.15046 0.0635,0.16564 0.0115,0.0152 0.0285,0.0594 0.0378,0.0982 0.009,0.0388 0.0378,0.1196 0.0634,0.17945 0.0256,0.0598 0.0997,0.2579 0.16461,0.44011 0.0649,0.18221 0.15036,0.41826 0.18995,0.52455 0.0396,0.10629 0.0887,0.24295 0.10916,0.30368 0.0334,0.0992 0.15734,0.43234 0.20028,0.53835 0.0396,0.0977 0.15236,0.41013 0.18937,0.52455 0.0221,0.0683 0.0526,0.14908 0.0679,0.17945 0.0152,0.0304 0.0454,0.11112 0.0671,0.17945 0.0435,0.13732 0.16885,0.47961 0.20719,0.56595 0.0135,0.0304 0.0717,0.19187 0.12928,0.3589 0.0576,0.16703 0.12078,0.33474 0.14033,0.3727 0.0195,0.038 0.0356,0.0858 0.0357,0.10626 0,0.0205 0.0186,0.0764 0.0411,0.12424 0.0225,0.0478 0.0675,0.16153 0.10007,0.25264 0.1016,0.28433 0.156,0.43384 0.24612,0.67638 0.048,0.12907 0.10384,0.28436 0.12419,0.3451 0.0204,0.0607 0.0874,0.24088 0.14895,0.40031 0.0616,0.15943 0.11214,0.30043 0.11237,0.31332 2.8e-4,0.0129 0.0189,0.0626 0.0414,0.11043 0.0225,0.0478 0.0591,0.1429 0.0814,0.21123 0.0222,0.0683 0.0768,0.22362 0.1213,0.34509 0.0445,0.12148 0.13249,0.36373 0.1956,0.53835 0.0631,0.17462 0.13297,0.35664 0.15524,0.40448 0.0223,0.0478 0.0405,0.10188 0.0405,0.12007 0,0.0182 0.0183,0.0722 0.0407,0.12006 0.0791,0.16924 0.28701,0.78538 0.27052,0.80187 -0.009,0.009 -2.25483,0.0167 -4.99028,0.0167 h -4.97355 l -0.091,-0.24157 c -0.14192,-0.37657 -0.1838,-0.49008 -0.33351,-0.90415 -0.0769,-0.21258 -0.16412,-0.44472 -0.19391,-0.51586 -0.0298,-0.0711 -0.0542,-0.14381 -0.0542,-0.16148 0,-0.0177 -0.0184,-0.0713 -0.0409,-0.11911 -0.0225,-0.0479 -0.0588,-0.1429 -0.0805,-0.21123 -0.0218,-0.0683 -0.078,-0.22362 -0.12508,-0.3451 -0.047,-0.12147 -0.13032,-0.3513 -0.18505,-0.51074 -0.0547,-0.15943 -0.11612,-0.32715 -0.13642,-0.3727 -0.0203,-0.0455 -0.0544,-0.13252 -0.0759,-0.19325 -0.0214,-0.0607 -0.0982,-0.27194 -0.17055,-0.46933 -0.0724,-0.1974 -0.16035,-0.43965 -0.19547,-0.53835 -0.0351,-0.0987 -0.094,-0.2602 -0.13099,-0.3589 -0.0369,-0.0987 -0.11855,-0.32232 -0.18138,-0.49694 -0.0628,-0.17462 -0.12647,-0.34233 -0.14144,-0.3727 -0.015,-0.0304 -0.0452,-0.11112 -0.0672,-0.17945 -0.022,-0.0683 -0.0763,-0.22362 -0.1208,-0.3451 -0.0445,-0.12147 -0.13249,-0.36373 -0.1956,-0.53835 -0.0631,-0.17461 -0.13297,-0.35663 -0.15524,-0.40448 -0.0223,-0.0478 -0.0405,-0.10187 -0.0405,-0.12006 0,-0.0182 -0.0182,-0.0722 -0.0405,-0.12006 -0.0223,-0.0478 -0.0909,-0.22987 -0.15252,-0.40449 -0.0616,-0.17461 -0.11974,-0.33612 -0.12916,-0.35889 -0.0362,-0.0876 -0.15135,-0.40593 -0.18972,-0.52455 -0.0221,-0.0683 -0.0523,-0.14908 -0.0672,-0.17945 -0.0149,-0.0304 -0.0709,-0.17945 -0.12451,-0.33129 -0.0536,-0.15184 -0.10883,-0.30092 -0.12269,-0.33129 -0.0139,-0.0304 -0.0525,-0.13597 -0.0858,-0.23467 -0.0615,-0.18202 -0.10453,-0.30126 -0.23413,-0.64878 -0.0396,-0.10629 -0.0961,-0.26158 -0.1255,-0.34509 -0.0294,-0.0835 -0.0654,-0.17669 -0.08,-0.20706 -0.0291,-0.0604 -0.11575,-0.30734 -0.18404,-0.52454 -0.0239,-0.0759 -0.0533,-0.15047 -0.0654,-0.16565 -0.0121,-0.0152 -0.0413,-0.093 -0.0648,-0.17299 -0.0236,-0.08 -0.0524,-0.16071 -0.0641,-0.17945 -0.0232,-0.0373 -0.12309,-0.31348 -0.19204,-0.531 -0.0241,-0.0759 -0.0514,-0.15047 -0.0607,-0.16565 -0.009,-0.0152 -0.0433,-0.10215 -0.0755,-0.19325 -0.0322,-0.0911 -0.14318,-0.39548 -0.24657,-0.67639 -0.10339,-0.28091 -0.2114,-0.57907 -0.24003,-0.66258 -0.0286,-0.0835 -0.064,-0.17669 -0.0787,-0.20706 -0.0146,-0.0304 -0.0506,-0.12355 -0.08,-0.20706 -0.19439,-0.55296 -0.28154,-0.79379 -0.30471,-0.84203 -0.0146,-0.0304 -0.0499,-0.12355 -0.0786,-0.20706 -0.083,-0.24222 -0.27972,-0.78166 -0.30704,-0.84203 -0.0137,-0.0304 -0.0464,-0.11733 -0.0725,-0.19325 -0.0511,-0.14845 -0.15892,-0.44315 -0.18687,-0.51075 -0.009,-0.0228 -0.0673,-0.18428 -0.12866,-0.3589 -0.0613,-0.17461 -0.12278,-0.34233 -0.13652,-0.3727 -0.0137,-0.0304 -0.0437,-0.11112 -0.0666,-0.17945 -0.0228,-0.0683 -0.0745,-0.2112 -0.11479,-0.31749 -0.0403,-0.10628 -0.12237,-0.32991 -0.18242,-0.49693 -0.0601,-0.16703 -0.1274,-0.34283 -0.14968,-0.39068 -0.0223,-0.0479 -0.0405,-0.10145 -0.0405,-0.11912 0,-0.0177 -0.0234,-0.0903 -0.0521,-0.16147 -0.0286,-0.0711 -0.0918,-0.24117 -0.14033,-0.37782 -0.0486,-0.13666 -0.10491,-0.28574 -0.12525,-0.33129 -0.0203,-0.0456 -0.0582,-0.15116 -0.0842,-0.23467 -0.026,-0.0835 -0.0563,-0.16426 -0.0673,-0.17945 -0.0111,-0.0152 -0.029,-0.0649 -0.0399,-0.11043 -0.0109,-0.0455 -0.0372,-0.12009 -0.0586,-0.16565 -0.0213,-0.0455 -0.0568,-0.13872 -0.0787,-0.20705 -0.0451,-0.14035 -0.17058,-0.4824 -0.20768,-0.56596 -0.0135,-0.0304 -0.0717,-0.19187 -0.12929,-0.3589 -0.0576,-0.16702 -0.12077,-0.33474 -0.14032,-0.3727 -0.0196,-0.038 -0.0356,-0.0858 -0.0357,-0.10626 0,-0.0205 -0.0186,-0.0764 -0.0411,-0.12423 -0.0225,-0.0478 -0.0651,-0.15533 -0.0946,-0.23884 -0.0296,-0.0835 -0.11219,-0.31335 -0.18364,-0.51074 -0.0714,-0.1974 -0.15375,-0.42723 -0.18291,-0.51074 -0.0292,-0.0835 -0.0698,-0.18912 -0.0903,-0.23467 -0.0205,-0.0456 -0.0502,-0.1263 -0.0659,-0.17945 -0.0157,-0.0531 -0.0622,-0.18359 -0.10338,-0.28988 -0.0411,-0.10629 -0.0963,-0.25537 -0.12255,-0.33129 l -0.0477,-0.13804 -0.0344,0.0828 c -0.0189,0.0456 -0.045,0.10766 -0.058,0.13803 -0.0276,0.0645 -0.18569,0.49295 -0.21899,0.59357 -0.0126,0.038 -0.0529,0.14977 -0.0895,0.24847 -0.0367,0.0987 -0.14972,0.40928 -0.25122,0.69019 -0.1015,0.2809 -0.202779,0.54989 -0.225067,0.59773 -0.02229,0.0478 -0.04052,0.10188 -0.04052,0.12007 0,0.0182 -0.01822,0.0722 -0.04049,0.12006 -0.02227,0.0478 -0.09091,0.22986 -0.152524,0.40448 -0.06162,0.17462 -0.119737,0.33612 -0.129154,0.3589 -0.02795,0.0676 -0.135772,0.36229 -0.186868,0.51074 -0.02613,0.0759 -0.05861,0.16289 -0.07218,0.19325 -0.01357,0.0304 -0.04434,0.11112 -0.06839,0.17945 -0.05319,0.15111 -0.14542,0.40443 -0.261337,0.7178 -0.106206,0.28712 -0.28859,0.7887 -0.361397,0.99388 -0.02963,0.0835 -0.07228,0.19099 -0.09476,0.23883 -0.02249,0.0478 -0.04096,0.10376 -0.04106,0.12424 0,0.0205 -0.01679,0.0691 -0.03711,0.10803 -0.02032,0.0389 -0.0884,0.21907 -0.151282,0.40031 -0.06289,0.18124 -0.152839,0.42891 -0.19989,0.55038 -0.04705,0.12147 -0.103115,0.27677 -0.124585,0.3451 -0.02147,0.0683 -0.0515,0.14908 -0.06672,0.17945 -0.01522,0.0304 -0.04535,0.11112 -0.06694,0.17944 -0.02159,0.0683 -0.109798,0.31059 -0.196006,0.53835 -0.08621,0.22777 -0.173621,0.46381 -0.19425,0.52455 -0.02063,0.0607 -0.06988,0.19739 -0.10945,0.30368 -0.03957,0.10629 -0.09621,0.26158 -0.125874,0.3451 -0.02966,0.0835 -0.07233,0.19099 -0.09482,0.23883 -0.02249,0.0479 -0.04089,0.10188 -0.04089,0.12007 0,0.0182 -0.0175,0.0722 -0.03889,0.12006 -0.04362,0.0976 -0.137033,0.37532 -0.196392,0.58393 -0.0216,0.0759 -0.06446,0.18725 -0.09525,0.2474 -0.03078,0.0602 -0.05597,0.13504 -0.05597,0.16641 0,0.0314 -0.01698,0.0815 -0.03774,0.1115 -0.02076,0.03 -0.05867,0.12899 -0.08425,0.2201 -0.02558,0.0911 -0.07286,0.22155 -0.105083,0.28988 -0.09088,0.19274 -0.10058,0.21913 -0.172578,0.46933 -0.07773,0.27011 -0.18187,0.56635 -0.229866,0.65387 -0.01819,0.0332 -0.03307,0.0806 -0.03307,0.10534 0,0.0248 -0.01488,0.0722 -0.03307,0.10534 -0.03362,0.0613 -0.109111,0.26411 -0.227973,0.61246 -0.08495,0.24896 -0.134568,0.37849 -0.160367,0.41865 -0.01136,0.0177 -0.04672,0.11706 -0.07858,0.22086 -0.03187,0.10379 -0.06688,0.20114 -0.07782,0.21632 -0.01094,0.0152 -0.03556,0.0835 -0.05471,0.15184 -0.01915,0.0683 -0.05076,0.14927 -0.07023,0.17986 -0.01947,0.0306 -0.04456,0.0989 -0.05574,0.15184 -0.01119,0.0529 -0.03743,0.13349 -0.05832,0.17905 -0.02089,0.0456 -0.0619,0.15115 -0.09113,0.23466 -0.08948,0.25563 -0.141956,0.39655 -0.179919,0.48313 -0.01997,0.0456 -0.0524,0.14494 -0.07207,0.22087 -0.01967,0.0759 -0.04543,0.15074 -0.05726,0.16628 -0.03095,0.0406 -0.162115,0.39402 -0.194209,0.52323 -0.01499,0.0604 -0.03614,0.11627 -0.04699,0.12423 -0.01085,0.008 -0.04035,0.0766 -0.06556,0.15252 -0.124652,0.37535 -0.296156,0.84814 -0.31841,0.87777 -0.01375,0.0183 -0.04096,0.0892 -0.06046,0.15752 -0.0195,0.0683 -0.04858,0.15529 -0.06461,0.19325 -0.04651,0.1101 -0.157137,0.41573 -0.204851,0.56596 -0.02411,0.0759 -0.05272,0.14425 -0.06357,0.15184 -0.01875,0.0131 -0.04032,0.0873 -0.07405,0.25448 -0.0083,0.0413 -0.03242,0.0894 -0.05354,0.10691 -0.02112,0.0175 -0.03841,0.05 -0.03841,0.0721 0,0.0221 -0.02933,0.11689 -0.06517,0.21058 -0.03585,0.0937 -0.08157,0.22626 -0.101602,0.29459 -0.02003,0.0683 -0.04693,0.13831 -0.05976,0.15551 -0.01283,0.0172 -0.07075,0.16628 -0.128704,0.33129 -0.05795,0.16501 -0.125971,0.34812 -0.151146,0.40692 -0.02517,0.0588 -0.04585,0.12091 -0.04594,0.13804 0,0.0171 -0.01766,0.0647 -0.03904,0.10564 -0.02138,0.041 -0.05927,0.14658 -0.08419,0.23467 -0.02492,0.0881 -0.06326,0.20053 -0.08519,0.24988 -0.02193,0.0493 -0.05782,0.1301 -0.07975,0.17945 -0.02193,0.0494 -0.06094,0.16411 -0.08669,0.25504 -0.02575,0.0909 -0.05741,0.18409 -0.07035,0.20705 -0.02304,0.0409 -0.0585,0.13613 -0.164574,0.44206 -0.02896,0.0835 -0.0642,0.17669 -0.07832,0.20706 -0.01412,0.0304 -0.04035,0.1049 -0.05828,0.16564 -0.01793,0.0607 -0.0474,0.13528 -0.06547,0.16565 -0.01807,0.0304 -0.04902,0.11112 -0.06877,0.17945 -0.01975,0.0683 -0.05166,0.15529 -0.07091,0.19325 -0.01925,0.038 -0.05029,0.13428 -0.06896,0.21404 -0.01868,0.0798 -0.04461,0.15161 -0.05762,0.15965 -0.01301,0.008 -0.04446,0.0888 -0.06988,0.17937 -0.02542,0.0906 -0.05701,0.16474 -0.07019,0.16474 -0.01318,0 -0.02397,0.0255 -0.02397,0.0566 0,0.0311 -0.06212,0.21307 -0.138038,0.40436 -0.07592,0.1913 -0.138038,0.36467 -0.138038,0.38527 0,0.0206 -0.02485,0.0838 -0.05521,0.14047 -0.03037,0.0567 -0.05522,0.12218 -0.05522,0.1456 0,0.0234 -0.0193,0.0701 -0.04289,0.10381 -0.02359,0.0337 -0.06133,0.13202 -0.08385,0.21852 -0.02253,0.0865 -0.05171,0.17043 -0.06484,0.18648 -0.01313,0.0161 -0.0384,0.0851 -0.05615,0.15342 -0.01775,0.0683 -0.05599,0.17423 -0.08496,0.23533 -0.02898,0.0611 -0.06131,0.15422 -0.07185,0.20694 -0.01054,0.0527 -0.03335,0.11002 -0.05068,0.12735 -0.01733,0.0173 -0.0469,0.10029 -0.06571,0.18434 -0.01881,0.0841 -0.05216,0.16773 -0.07411,0.18595 -0.02195,0.0182 -0.03991,0.0576 -0.03991,0.0876 0,0.03 -0.01743,0.0874 -0.03872,0.12776 -0.04386,0.083 -0.126921,0.34984 -0.126921,0.40774 0,0.021 -0.0097,0.0382 -0.02149,0.0382 -0.01182,0 -0.04446,0.0776 -0.07253,0.17254 -0.02807,0.0949 -0.0681,0.19706 -0.08894,0.22701 -0.02084,0.03 -0.03797,0.0796 -0.03807,0.11043 0,0.0308 -0.01737,0.0889 -0.03839,0.12923 -0.02102,0.0403 -0.05361,0.12104 -0.07241,0.17944 -0.0188,0.0584 -0.05013,0.13726 -0.0696,0.17522 -0.01948,0.038 -0.05685,0.14356 -0.08306,0.23467 -0.02621,0.0911 -0.05643,0.17807 -0.06717,0.19325 -0.01074,0.0152 -0.03549,0.0866 -0.055,0.15874 -0.01951,0.0721 -0.04358,0.13114 -0.05347,0.13114 -0.01684,0 -0.06146,0.13663 -0.101416,0.31059 -0.0096,0.0417 -0.02852,0.0759 -0.04206,0.0759 -0.01354,0 -0.0248,0.0217 -0.02503,0.0483 -5.8e-4,0.0685 -0.06708,0.25109 -0.105378,0.28939 -0.01774,0.0177 -0.03224,0.0506 -0.03224,0.0731 0,0.0515 -0.04996,0.20522 -0.113263,0.34844 -0.02685,0.0607 -0.05705,0.15615 -0.06711,0.21204 -0.01007,0.0559 -0.03572,0.1083 -0.057,0.11647 -0.02128,0.008 -0.03878,0.0432 -0.03887,0.0778 0,0.0346 -0.01766,0.0965 -0.03904,0.1375 -0.02138,0.041 -0.05928,0.14658 -0.08422,0.23466 -0.02494,0.0881 -0.07065,0.21529 -0.101574,0.28267 -0.03092,0.0674 -0.0629,0.16366 -0.07106,0.21396 -0.0082,0.0503 -0.02402,0.0914 -0.03525,0.0914 -0.01122,0 -0.03637,0.059 -0.05589,0.13114 -0.01951,0.0721 -0.04408,0.14356 -0.05459,0.15875 -0.01051,0.0152 -0.04089,0.0959 -0.06751,0.17944 -0.02662,0.0835 -0.0583,0.15806 -0.07039,0.16565 -0.01209,0.008 -0.02637,0.0449 -0.03173,0.0828 l -0.0097,0.069 18.472176,0.007 18.47218,0.007 0.0151,-14.02041 c 0.008,-7.71122 0.008,-19.89862 0,-27.0831 L 125.75109,203.85 H 88.167291 50.583726 v 27.08309 27.08309 h 9.072061 c 7.877272,0 9.070054,0.005 9.056833,0.0397 -0.0084,0.0218 -0.02868,0.0896 -0.04512,0.15068 -0.01644,0.061 -0.04163,0.11825 -0.05599,0.12712 -0.01436,0.009 -0.0396,0.0684 -0.05608,0.13231 -0.01649,0.0639 -0.04724,0.15395 -0.06834,0.20015 -0.0211,0.0462 -0.05433,0.14557 -0.07385,0.22086 -0.01952,0.0753 -0.04376,0.14309 -0.05387,0.15068 -0.01011,0.008 -0.04017,0.0821 -0.06679,0.16564 -0.02662,0.0835 -0.05801,0.16444 -0.06975,0.17982 -0.01174,0.0154 -0.03686,0.0896 -0.05583,0.16489 -0.01896,0.0753 -0.05086,0.16831 -0.07089,0.20669 -0.02003,0.0384 -0.0365,0.0849 -0.03659,0.10345 0,0.0185 -0.02292,0.0744 -0.05071,0.12423 -0.0278,0.0498 -0.0738,0.17753 -0.102231,0.28382 -0.02843,0.10629 -0.0678,0.20967 -0.08749,0.22973 -0.01969,0.0201 -0.03581,0.0658 -0.03581,0.10156 0,0.0358 -0.01642,0.0815 -0.03648,0.10156 -0.02007,0.0201 -0.05968,0.12344 -0.08803,0.22973 -0.02835,0.10629 -0.06007,0.19947 -0.07049,0.20706 -0.01041,0.008 -0.02805,0.0573 -0.03918,0.11043 -0.01114,0.0531 -0.04262,0.1339 -0.06996,0.17945 -0.02734,0.0455 -0.06401,0.13873 -0.0815,0.20706 -0.01748,0.0683 -0.05419,0.17392 -0.08156,0.23466 -0.02738,0.0607 -0.05826,0.15702 -0.06862,0.21396 -0.01036,0.0569 -0.02874,0.10353 -0.04083,0.10353 -0.01209,0 -0.03702,0.0528 -0.0554,0.11733 -0.01838,0.0645 -0.05031,0.1546 -0.07097,0.20016 -0.02066,0.0456 -0.05246,0.13872 -0.07067,0.20705 -0.01821,0.0683 -0.05522,0.16772 -0.08224,0.22086 -0.02702,0.0532 -0.05825,0.14011 -0.0694,0.19326 -0.01115,0.0531 -0.02879,0.10284 -0.03921,0.11043 -0.01042,0.008 -0.04129,0.0977 -0.06862,0.20015 -0.02733,0.1025 -0.06073,0.18636 -0.07422,0.18636 -0.0135,0 -0.02454,0.025 -0.02454,0.0556 0,0.0306 -0.01242,0.0803 -0.02761,0.11043 -0.06332,0.12577 -0.07613,0.15902 -0.122224,0.31711 -0.02656,0.0911 -0.06406,0.1967 -0.08333,0.23466 -0.01927,0.038 -0.05194,0.12803 -0.07261,0.20016 -0.02067,0.0721 -0.0459,0.13114 -0.05608,0.13114 -0.01018,0 -0.02723,0.0466 -0.03789,0.10352 -0.01066,0.057 -0.041,0.15323 -0.06743,0.21396 -0.02643,0.0607 -0.06456,0.16323 -0.08474,0.22777 -0.02018,0.0645 -0.04574,0.11733 -0.05681,0.11733 -0.01106,0 -0.02884,0.0466 -0.0395,0.10353 -0.01066,0.0569 -0.04341,0.15633 -0.07278,0.22086 -0.02937,0.0645 -0.06093,0.15771 -0.07014,0.20706 -0.0092,0.0493 -0.03816,0.12699 -0.06435,0.17254 -0.02619,0.0456 -0.06425,0.14494 -0.08458,0.22086 -0.02034,0.0759 -0.05311,0.1691 -0.07283,0.20706 -0.01972,0.038 -0.03594,0.088 -0.03603,0.11119 0,0.0232 -0.01702,0.0667 -0.0376,0.0966 -0.02059,0.03 -0.05895,0.12278 -0.08525,0.2063 -0.0263,0.0835 -0.06472,0.18963 -0.08537,0.23582 -0.02065,0.0462 -0.04901,0.13497 -0.06301,0.19728 -0.014,0.0623 -0.0457,0.1422 -0.07045,0.17753 -0.02475,0.0353 -0.04499,0.0819 -0.04499,0.10338 0,0.0215 -0.02356,0.0902 -0.05235,0.1526 -0.02879,0.0624 -0.06784,0.16936 -0.08677,0.23769 -0.01893,0.0683 -0.05676,0.17393 -0.08407,0.23467 -0.02731,0.0607 -0.05794,0.14459 -0.06807,0.18635 l -0.01842,0.0759 H 52.471855 40.03761 Z m 17.25477,19.5101 c 0,-0.0103 0.206056,-0.59439 0.230744,-0.65409 10.09326,-27.32369 5.814944,-15.92349 13.826842,-37.75519 0.0082,-0.0142 0.04244,-0.10971 0.07608,-0.2122 l 0.06116,-0.18636 h 5.058436 5.058436 l 0.04659,0.10561 c 0.02563,0.0581 0.0644,0.16057 0.08615,0.22776 0.04566,0.14098 0.171347,0.48279 0.20735,0.56388 0.01348,0.0304 0.07166,0.19187 0.129287,0.3589 0.05763,0.16703 0.120775,0.33474 0.140326,0.3727 0.01956,0.038 0.03563,0.0858 0.03572,0.10626 0,0.0205 0.01857,0.0764 0.04106,0.12424 0.02249,0.0478 0.06506,0.15532 0.09462,0.23883 0.02955,0.0835 0.112186,0.31335 0.183635,0.51075 0.07145,0.19739 0.153758,0.42722 0.182914,0.51074 0.02916,0.0835 0.06981,0.18911 0.09033,0.23466 0.02053,0.0455 0.05018,0.12631 0.0659,0.17945 0.01571,0.0531 0.06198,0.18359 0.102827,0.28988 0.140098,0.3646 0.209109,0.55238 0.263115,0.71594 0.02974,0.0901 0.06421,0.17704 0.0766,0.19325 0.01239,0.0162 0.0388,0.0916 0.0587,0.16751 0.0199,0.0759 0.04503,0.15046 0.05585,0.16564 0.01082,0.0152 0.04159,0.0959 0.06839,0.17945 0.02679,0.0835 0.05796,0.16427 0.06926,0.17945 0.0113,0.0152 0.03961,0.0897 0.06293,0.16565 0.02331,0.0759 0.07531,0.225 0.115558,0.33129 0.100083,0.26434 0.314116,0.85045 0.378064,1.03529 0.02889,0.0835 0.06408,0.17669 0.07819,0.20705 0.01411,0.0304 0.04908,0.12355 0.07771,0.20706 0.02863,0.0835 0.136528,0.38168 0.239775,0.66258 0.103247,0.28091 0.211362,0.57907 0.240256,0.66259 0.02889,0.0835 0.06913,0.18911 0.08942,0.23466 0.02029,0.0456 0.04586,0.11388 0.05683,0.15184 0.01097,0.038 0.03589,0.10629 0.05538,0.15185 0.01949,0.0455 0.0823,0.21948 0.139571,0.3865 0.05727,0.16703 0.113221,0.31611 0.124325,0.3313 0.0111,0.0152 0.03956,0.0897 0.06323,0.16564 0.02367,0.0759 0.07545,0.225 0.115052,0.33129 0.03961,0.10629 0.09606,0.26158 0.125446,0.3451 0.02939,0.0835 0.06486,0.17669 0.07882,0.20706 0.01396,0.0304 0.04677,0.11733 0.0729,0.19325 0.05379,0.15627 0.160911,0.44844 0.18726,0.51074 0.0096,0.0228 0.0409,0.10974 0.06948,0.19325 0.02858,0.0835 0.08544,0.23881 0.126349,0.3451 0.04091,0.10629 0.09346,0.25537 0.11678,0.33129 0.02332,0.0759 0.05192,0.15046 0.06354,0.16565 0.01163,0.0152 0.04306,0.0959 0.06986,0.17945 0.02679,0.0835 0.05757,0.16426 0.06839,0.17945 0.01082,0.0152 0.03595,0.0897 0.05585,0.16564 0.0199,0.0759 0.04503,0.15046 0.05585,0.16565 0.01082,0.0152 0.04159,0.0959 0.06839,0.17945 0.02679,0.0835 0.05796,0.16426 0.06926,0.17945 0.0113,0.0152 0.03954,0.0897 0.06276,0.16564 0.02322,0.0759 0.07921,0.23743 0.124419,0.3589 0.04521,0.12147 0.131266,0.35752 0.191233,0.52455 l 0.109028,0.30368 -0.0457,0.13804 c -0.02514,0.0759 -0.06033,0.17301 -0.07819,0.21575 -0.01787,0.0428 -0.03249,0.0906 -0.03249,0.10626 0,0.0157 -0.01813,0.0677 -0.04028,0.11554 -0.05982,0.12918 -0.17884,0.45482 -0.221955,0.60726 -0.02081,0.0736 -0.06187,0.18538 -0.09126,0.24847 -0.02938,0.0631 -0.08687,0.2141 -0.127757,0.33557 -0.04088,0.12147 -0.09081,0.25813 -0.110955,0.30368 -0.02014,0.0456 -0.0456,0.11388 -0.05657,0.15184 -0.01097,0.038 -0.03641,0.10629 -0.05653,0.15185 -0.02012,0.0456 -0.0758,0.20084 -0.123732,0.34509 -0.04793,0.14425 -0.109633,0.31237 -0.137116,0.3736 -0.02748,0.0612 -0.06452,0.16537 -0.0823,0.23142 -0.01779,0.066 -0.04352,0.14019 -0.0572,0.16475 -0.03596,0.0646 -0.191597,0.48136 -0.19195,0.51399 -2.76e-4,0.0152 -0.01866,0.0628 -0.04109,0.10582 -0.02244,0.043 -0.05416,0.12998 -0.0705,0.19326 -0.01634,0.0633 -0.05219,0.16473 -0.07967,0.22546 -0.02748,0.0607 -0.05858,0.14149 -0.0691,0.17945 -0.01053,0.038 -0.03078,0.0939 -0.045,0.12424 -0.01422,0.0304 -0.0498,0.12354 -0.07906,0.20705 -0.135095,0.38556 -0.173338,0.48911 -0.21055,0.57013 -0.02198,0.0479 -0.03996,0.10188 -0.03996,0.12006 0,0.0182 -0.01765,0.0722 -0.03923,0.12007 -0.02157,0.0478 -0.08511,0.21744 -0.141191,0.37687 -0.05608,0.15944 -0.112686,0.31473 -0.125786,0.3451 -0.04048,0.0938 -0.165028,0.43521 -0.206486,0.56595 -0.02167,0.0683 -0.05098,0.14908 -0.06513,0.17945 -0.05469,0.1173 -0.222799,0.59692 -0.222799,0.63563 0,0.0224 -0.01007,0.0408 -0.02239,0.0408 -0.01231,0 -0.03876,0.0652 -0.05877,0.14494 -0.02001,0.0797 -0.04608,0.15736 -0.05792,0.17255 -0.01185,0.0152 -0.04711,0.10215 -0.07837,0.19325 -0.03126,0.0911 -0.08889,0.25261 -0.128063,0.3589 -0.03918,0.10629 -0.09549,0.26158 -0.125148,0.3451 -0.02966,0.0835 -0.06547,0.17668 -0.07959,0.20705 -0.01411,0.0304 -0.04003,0.10491 -0.0576,0.16565 -0.01757,0.0607 -0.05512,0.16186 -0.08345,0.22471 -0.02833,0.0629 -0.06002,0.14983 -0.07041,0.19326 -0.0104,0.0434 -0.02799,0.0914 -0.03911,0.10657 -0.01111,0.0152 -0.03511,0.0773 -0.05333,0.13804 -0.01822,0.0607 -0.0444,0.13528 -0.05818,0.16565 -0.03818,0.0842 -0.164086,0.42951 -0.196266,0.53835 -0.01571,0.0531 -0.04504,0.13389 -0.06517,0.17945 -0.02013,0.0456 -0.08267,0.21327 -0.138996,0.3727 -0.05632,0.15943 -0.118464,0.32715 -0.138096,0.3727 -0.01963,0.0455 -0.04434,0.1201 -0.05491,0.16565 -0.01057,0.0455 -0.03457,0.10767 -0.05334,0.13804 -0.01877,0.0304 -0.05338,0.11733 -0.07693,0.19325 -0.02355,0.0759 -0.08252,0.24364 -0.131048,0.3727 -0.04853,0.12907 -0.133814,0.36511 -0.189521,0.52455 -0.127293,0.36431 -0.142124,0.38948 -0.177658,0.3015 -0.03991,-0.0988 -0.142621,-0.37855 -0.196873,-0.53617 -0.02613,-0.0759 -0.05875,-0.16288 -0.0725,-0.19325 -0.01374,-0.0304 -0.07506,-0.19809 -0.136266,-0.3727 -0.0612,-0.17462 -0.122525,-0.34234 -0.136266,-0.37271 -0.01374,-0.0304 -0.04636,-0.11733 -0.0725,-0.19325 -0.05422,-0.15753 -0.15634,-0.43624 -0.197243,-0.53835 -0.01521,-0.038 -0.06884,-0.18704 -0.119191,-0.33129 -0.05035,-0.14425 -0.100356,-0.2747 -0.111131,-0.28988 -0.01078,-0.0152 -0.0409,-0.10215 -0.06694,-0.19325 -0.02605,-0.0911 -0.05731,-0.17807 -0.06948,-0.19326 -0.01217,-0.0152 -0.03487,-0.0711 -0.05045,-0.12423 -0.01558,-0.0532 -0.06746,-0.20223 -0.115279,-0.33129 -0.04782,-0.12907 -0.110916,-0.303 -0.14021,-0.38651 -0.0293,-0.0835 -0.06569,-0.17669 -0.08088,-0.20706 -0.01519,-0.0304 -0.04521,-0.11112 -0.0667,-0.17945 -0.02149,-0.0683 -0.07176,-0.2112 -0.111711,-0.31749 -0.03995,-0.10628 -0.09702,-0.26158 -0.12683,-0.34509 -0.02981,-0.0835 -0.06208,-0.17048 -0.0717,-0.19325 -0.03545,-0.0839 -0.149954,-0.40436 -0.192337,-0.53835 -0.02402,-0.0759 -0.05328,-0.15046 -0.06504,-0.16565 -0.01175,-0.0152 -0.04059,-0.0897 -0.06408,-0.16564 -0.02349,-0.0759 -0.07623,-0.22501 -0.117203,-0.3313 -0.04098,-0.10629 -0.128245,-0.34233 -0.193932,-0.52454 -0.06569,-0.18221 -0.151983,-0.41826 -0.191768,-0.52455 -0.08793,-0.2349 -0.188279,-0.50919 -0.247453,-0.67638 -0.02418,-0.0683 -0.05154,-0.14287 -0.06079,-0.16565 -0.03211,-0.0791 -0.149768,-0.40115 -0.201698,-0.55215 -0.02872,-0.0835 -0.102483,-0.28229 -0.163912,-0.44172 -0.06143,-0.15944 -0.111883,-0.29839 -0.112115,-0.30879 -2.76e-4,-0.0104 -0.01468,-0.0539 -0.03211,-0.0966 -0.0419,-0.10278 -0.142052,-0.37498 -0.201276,-0.54705 -0.02613,-0.0759 -0.05875,-0.16288 -0.0725,-0.19325 -0.01374,-0.0304 -0.07506,-0.19809 -0.136266,-0.3727 -0.0612,-0.17462 -0.122647,-0.34234 -0.136539,-0.37271 -0.01389,-0.0304 -0.03991,-0.103 -0.05781,-0.16141 -0.0179,-0.0584 -0.04975,-0.13916 -0.07077,-0.17945 -0.02102,-0.0403 -0.03835,-0.0857 -0.03852,-0.10086 -2.76e-4,-0.0258 -0.138276,-0.4017 -0.192563,-0.52454 -0.01342,-0.0304 -0.04557,-0.12355 -0.07143,-0.20706 -0.02587,-0.0835 -0.05655,-0.16427 -0.06817,-0.17945 -0.01163,-0.0152 -0.04056,-0.0897 -0.06429,-0.16565 -0.06974,-0.22311 -0.261,-0.75115 -0.319978,-0.88344 -0.01354,-0.0304 -0.04337,-0.11112 -0.06628,-0.17945 -0.06637,-0.19788 -0.157745,-0.45073 -0.184566,-0.51074 -0.01357,-0.0304 -0.04836,-0.12355 -0.0773,-0.20706 -0.02894,-0.0835 -0.08064,-0.23259 -0.114884,-0.33129 -0.07011,-0.20207 -0.126594,-0.28418 -0.150561,-0.21886 -0.10177,0.27734 -0.36706,1.01317 -0.407372,1.12991 -0.02884,0.0835 -0.07042,0.19099 -0.09239,0.23884 -0.02198,0.0478 -0.03996,0.0958 -0.03996,0.10661 0,0.0108 -0.04532,0.13936 -0.100718,0.28571 -0.137168,0.36239 -0.251121,0.68027 -0.303212,0.84585 -0.02388,0.0759 -0.05329,0.15046 -0.06535,0.16565 -0.01206,0.0152 -0.03486,0.0711 -0.05069,0.12423 -0.01582,0.0531 -0.07361,0.21465 -0.128428,0.3589 -0.05481,0.14425 -0.116589,0.31197 -0.137284,0.3727 -0.02069,0.0607 -0.07686,0.21603 -0.124809,0.3451 -0.04795,0.12906 -0.109373,0.29678 -0.136489,0.3727 -0.186216,0.5214 -0.281844,0.78039 -0.305815,0.82823 -0.01522,0.0304 -0.04575,0.11112 -0.06785,0.17945 -0.03837,0.11862 -0.153529,0.437 -0.189726,0.52454 -0.0094,0.0228 -0.06754,0.18429 -0.129154,0.3589 -0.06162,0.17462 -0.130252,0.35664 -0.152523,0.40449 -0.02227,0.0479 -0.04057,0.10375 -0.04066,0.12423 0,0.0205 -0.01617,0.0683 -0.03572,0.10626 -0.01955,0.038 -0.0829,0.20568 -0.140775,0.3727 -0.05787,0.16703 -0.123165,0.34413 -0.145091,0.39356 -0.02193,0.0494 -0.05707,0.1426 -0.0781,0.20705 -0.02103,0.0645 -0.07098,0.20415 -0.111016,0.31044 -0.04003,0.10629 -0.09849,0.2678 -0.129913,0.3589 -0.03142,0.0911 -0.06589,0.17807 -0.07659,0.19326 -0.0107,0.0152 -0.036,0.0897 -0.05621,0.16564 -0.02021,0.0759 -0.04413,0.14425 -0.05315,0.15184 -0.009,0.008 -0.03737,0.0759 -0.06301,0.15185 -0.04614,0.13666 -0.163219,0.45845 -0.19587,0.53835 -0.04552,0.11139 -0.164199,0.44325 -0.202392,0.56595 -0.02363,0.0759 -0.05059,0.15046 -0.0599,0.16565 -0.01606,0.0262 -0.07632,0.18975 -0.183055,0.49694 -0.02638,0.0759 -0.06403,0.1753 -0.08366,0.22086 -0.01963,0.0455 -0.04429,0.11388 -0.05479,0.15184 -0.01051,0.038 -0.04295,0.12168 -0.07209,0.18605 -0.02914,0.0644 -0.05299,0.13082 -0.05299,0.14767 0,0.0169 -0.01798,0.0698 -0.03996,0.11763 -0.02198,0.0478 -0.06377,0.15533 -0.09289,0.23884 -0.14928,0.42824 -0.300476,0.8477 -0.313952,0.871 -0.0084,0.0144 -0.03694,0.0929 -0.06353,0.1743 -0.02659,0.0814 -0.06543,0.18082 -0.08633,0.22086 -0.02089,0.04 -0.03807,0.0896 -0.03816,0.11005 0,0.0205 -0.01815,0.0764 -0.04013,0.12423 -0.02198,0.0479 -0.06668,0.16154 -0.09934,0.25264 -0.03266,0.0911 -0.08961,0.2464 -0.12655,0.3451 -0.03694,0.0987 -0.09104,0.24778 -0.120215,0.33129 -0.05566,0.15933 -0.173812,0.48147 -0.202521,0.55215 -0.0092,0.0228 -0.0366,0.0973 -0.06079,0.16565 -0.05644,0.15946 -0.155729,0.43116 -0.247185,0.67639 -0.07358,0.1973 -0.278489,0.76199 -0.375671,1.03528 -0.0297,0.0835 -0.07239,0.19099 -0.09488,0.23884 -0.02249,0.0479 -0.04089,0.10187 -0.04089,0.12006 0,0.0182 -0.01798,0.0722 -0.03996,0.12006 -0.04145,0.0902 -0.121645,0.30812 -0.209851,0.57013 -0.02812,0.0835 -0.09006,0.25123 -0.137658,0.37271 -0.0476,0.12147 -0.104105,0.27676 -0.125576,0.34509 -0.02147,0.0683 -0.05104,0.14908 -0.06571,0.17945 -0.01466,0.0304 -0.05033,0.12354 -0.07925,0.20706 -0.07949,0.22953 -0.268799,0.74833 -0.307256,0.84203 -0.0187,0.0455 -0.0506,0.13252 -0.0709,0.19325 -0.0203,0.0607 -0.0696,0.1974 -0.10955,0.30369 -0.03995,0.10629 -0.09668,0.26158 -0.126073,0.34509 -0.02939,0.0835 -0.06498,0.17669 -0.07909,0.20706 -0.01411,0.0304 -0.03982,0.10491 -0.05712,0.16565 -0.0173,0.0607 -0.04235,0.13527 -0.05566,0.16564 -0.05312,0.12116 -0.189792,0.48117 -0.216069,0.56914 -0.01535,0.0514 -0.06698,0.19283 -0.114718,0.31431 -0.04774,0.12147 -0.106844,0.28919 -0.131335,0.3727 -0.02449,0.0835 -0.05181,0.15805 -0.06071,0.16565 -0.0089,0.008 -0.03715,0.0759 -0.06279,0.15184 -0.05438,0.16105 -0.165072,0.46328 -0.21026,0.57407 -0.0173,0.0424 -0.03949,0.11076 -0.04929,0.15185 -0.0098,0.0411 -0.02733,0.0871 -0.03894,0.10231 -0.01966,0.0257 -0.04273,0.0891 -0.19099,0.52454 -0.03102,0.0911 -0.06804,0.19049 -0.08227,0.22086 -0.01423,0.0304 -0.07149,0.18566 -0.127243,0.3451 -0.05575,0.15943 -0.122352,0.33336 -0.148005,0.3865 l -0.04664,0.0966 -4.988735,0.007 c -2.743803,0.004 -4.988733,0.003 -4.988733,-0.002 z"
         id="path2242"
         sodipodi:nodetypes="ccccccccsscccccsscssssssssssssssssscsscsssscssssccscscscscsccscsssssscscsscscscsssssscssssssccscccsssscsscsssscssssssccssccssscssscsssscsscsssssccsscsscsssssssssssssscsscssccscsssccscccccscsssscccscsccssscsccssscsccsscsssssssssssscssssssssssssssssssssssssssssssssssssssssssssssssssscssssssssssssssssssssssssssssssscsssscssssssssssssssccssssssssccccccccccccscscssscsssscsssssscssssssssssscssscsssssssssssssscsssssssssscccccccscccssssscsssssssssssssssssssssssssssssssssssssssssssscsssssssssssssscsssssssssssssssssssssssssssssssssssssssssssssssssssssssssssssssssscssssssssssssssssssssssssssssssssscsssssssscssssssssssscsscsssscssssssssssssssssssssscsssssssscccc" /><path
         style="display:inline;fill:#203886;fill-opacity:1;stroke-width:0.981159"
         d="m 42.643167,265.8665 2.626294,-2.61187 0.0069,-32.00014 0.0348,-32.44352 c 2.372551,2.23663 3.234862,3.04407 4.79862,4.55727 l 0.432841,0.44422 -8.3e-5,27.09437 -8.3e-5,27.09437 -2.61574,2.61585 -2.615741,2.61585 h 10.732413 c 7.03236,0 10.732413,0.009 10.732413,0.0272 0,0.0608 -0.0681,0.27647 -0.0873,0.27647 -0.01135,0 -0.02879,0.0466 -0.03876,0.10353 -0.01,0.0569 -0.03292,0.11595 -0.05099,0.13114 -0.01807,0.0152 -0.05534,0.11146 -0.08281,0.21396 -0.02747,0.10249 -0.061,0.18635 -0.07449,0.18635 -0.0135,0 -0.02454,0.0226 -0.02454,0.0503 0,0.0601 -0.08389,0.31658 -0.109975,0.33621 -0.01009,0.008 -0.03488,0.0759 -0.0551,0.15184 -0.02021,0.0759 -0.0461,0.15046 -0.05753,0.16564 -0.01143,0.0152 -0.0399,0.10101 -0.06325,0.19071 -0.02336,0.0897 -0.05427,0.17046 -0.0687,0.17945 -0.01443,0.009 -0.04116,0.0723 -0.0594,0.14058 -0.01824,0.0683 -0.04266,0.13666 -0.05427,0.15185 -0.01161,0.0152 -0.04306,0.10214 -0.06988,0.19325 -0.02682,0.0911 -0.07176,0.21564 -0.09987,0.27674 -0.0281,0.0611 -0.05911,0.15117 -0.06891,0.20015 -0.0098,0.049 -0.02699,0.0891 -0.0382,0.0891 -0.01121,0 -0.0362,0.0745 -0.05554,0.16564 -0.01933,0.0911 -0.04514,0.16565 -0.05734,0.16565 -0.01221,0 -0.04432,0.0745 -0.07137,0.16564 -0.02705,0.0911 -0.05884,0.16565 -0.07066,0.16565 -0.01182,0 -0.02149,0.0172 -0.02149,0.0382 0,0.021 -0.02035,0.10489 -0.04522,0.18635 -0.04229,0.13853 -0.07631,0.22466 -0.184361,0.46676 -0.024,0.0538 -0.05604,0.15295 -0.07118,0.22036 -0.01515,0.0674 -0.04064,0.12694 -0.05664,0.13228 -0.01601,0.005 -0.02904,0.0304 -0.02897,0.0557 2.77e-4,0.0616 -0.09134,0.31968 -0.117467,0.33129 -0.01139,0.005 -0.02071,0.0268 -0.02071,0.0483 0,0.0337 -1.724075,0.0391 -12.427016,0.0391 l -12.406272,0.004 2.60558,-2.6154 z m 32.359738,2.55192 c 0.946811,-2.45208 1.231003,-3.1292 1.922777,-5.16002 l 26.898998,-0.0255 27.17963,0.0154 c -1.99421,-1.93098 -3.31961,-3.22327 -5.23101,-5.23327 V 247.9852 c 0,-5.5205 0.0106,-10.04164 0.0236,-10.05608 -6.2e-4,-5.05072 0.0777,-9.51374 -10e-4,-14.83772 -0.0122,0 -0.0118,-4.32958 -0.0222,-9.62126 l -0.019,-9.61834 c 1.96274,-1.87222 3.51852,-3.31576 5.26445,-4.88902 v 32.13542 32.13542 h -0.0966 c -0.0531,0 0.077,-10e-4 0.0846,0.009 0.22802,0.31503 0.19259,0.24654 1.7374,1.84053 1.88323,1.94318 3.51584,3.33222 3.55821,3.3969 -21.02235,8.8e-4 -40.010388,-0.001 -61.299395,-0.001 z m -34.868439,-74.94356 -0.09663,-0.089 47.450618,-1.3e-4 c 26.097846,-9e-5 48.773546,0.007 48.773546,0.0156 -2.97427,3.1823 -2.1499,2.30708 -5.20417,5.59292 -28.6201,-0.73418 -57.113901,-0.20254 -85.740079,-0.19787 -1.995435,-2.18321 -2.732947,-2.86476 -5.183285,-5.32152 z"
         id="path304"
         sodipodi:nodetypes="ccccccccccsssssssscsssssssssssssssssscccssccccccccsccsccccssscccccccccc" /><path
         style="fill:url(#linearGradient2248);fill-opacity:1;stroke-width:0.196231"
         d="m 71.489176,211.63566 5.037101,13.55108 c 0,0 -9.063753,24.9703 -9.297613,24.9703 -0.233862,0 -10.037283,0.81783 -9.896966,0.20979 5.147964,-13.9522 9.127432,-24.83955 14.157478,-38.73117 z"
         id="path2244"
         sodipodi:nodetypes="ccscc" /><path
         style="fill:url(#linearGradient2332);fill-opacity:1;stroke-width:0.196231"
         d="m 95.758956,211.63256 5.037094,13.55108 c 0,0 -9.063746,24.9703 -9.297606,24.9703 -0.233862,0 -10.037283,0.81783 -9.896966,0.20979 5.147964,-13.9522 9.127432,-24.83955 14.157478,-38.73117 z"
         id="path2244-5"
         sodipodi:nodetypes="ccscc" /></g></g></svg>
